<svg width="48" height="48" viewBox="0 0 48 48" fill="none" xmlns="http://www.w3.org/2000/svg">
<g clip-path="url(#clip0_5585_73181)">
<g opacity="0.4">
<path d="M37.1938 17.2132C38.4828 19.5424 39.218 22.2188 39.218 25.064C39.218 34.0334 31.9208 41.3305 22.9514 41.3305C13.982 41.3305 6.68494 34.0334 6.68494 25.0641C6.68494 16.0948 13.982 8.79759 22.9514 8.79759C25.7251 8.79759 28.3385 9.49612 30.6259 10.7254L33.9756 7.37568C30.7005 5.32584 26.9105 4.22803 22.9513 4.22803C17.3858 4.22803 12.1534 6.39534 8.21794 10.3308C4.2825 14.2662 2.11519 19.4986 2.11519 25.0642C2.11519 30.6296 4.2825 35.8621 8.21794 39.7974C12.1535 43.733 17.3858 45.9003 22.9513 45.9003C28.5168 45.9003 33.7492 43.733 37.6846 39.7974C41.6201 35.862 43.7874 30.6296 43.7874 25.0642C43.7874 21.0375 42.6523 17.1856 40.5344 13.8727L37.1938 17.2132Z" fill="#7A838C"/>
<path d="M24.5459 21.2136C23.046 20.599 21.2513 20.8943 20.0348 22.1109C18.4118 23.7339 18.4118 26.3519 20.0348 27.9624C21.6572 29.5847 24.2753 29.5847 25.8855 27.9624C27.1028 26.7449 27.3974 24.9505 26.7828 23.4513L38.6692 11.5649L40.6487 11.8229L45.8847 6.58626L41.9271 6.05817L41.3982 2.09985L36.1615 7.34854L36.4202 9.32742L24.5459 21.2136Z" fill="#7A838C"/>
<path d="M30.7022 23.7047C30.7794 24.1464 30.82 24.6005 30.82 25.064C30.82 29.4029 27.2902 32.9327 22.9513 32.9327C18.6126 32.9327 15.0826 29.403 15.0826 25.064C15.0826 20.7253 18.6125 17.1954 22.9513 17.1954C23.3329 17.1954 23.708 17.2232 24.0752 17.2759L27.7585 13.5926C26.2789 12.9702 24.6547 12.6257 22.9513 12.6257C16.0928 12.6257 10.513 18.2055 10.513 25.064C10.513 31.9225 16.0928 37.5024 22.9513 37.5024C29.8098 37.5024 35.3897 31.9225 35.3897 25.064C35.3897 23.2874 35.0144 21.597 34.3403 20.0666L30.7022 23.7047Z" fill="#7A838C"/>
</g>
</g>
<defs>
<clipPath id="clip0_5585_73181">
<rect width="48" height="48" fill="white"/>
</clipPath>
</defs>
</svg>
