<svg width="48" height="48" viewBox="0 0 48 48" fill="none" xmlns="http://www.w3.org/2000/svg">
<g opacity="0.4">
<path fill-rule="evenodd" clip-rule="evenodd" d="M43.584 12.8019C43.564 13.6299 42.878 14.2859 42.05 14.2679C41.222 14.2479 40.566 13.5619 40.584 12.7339L40.666 9.12191L37.056 9.03991C36.228 9.01991 35.572 8.33391 35.59 7.50591C35.61 6.67791 36.296 6.02191 37.124 6.03991L42.236 6.15791C43.064 6.17591 43.72 6.86191 43.7 7.68991L43.584 12.8019Z" fill="#7A838C"/>
<path fill-rule="evenodd" clip-rule="evenodd" d="M11.654 18.692V42.974C11.654 44.37 10.524 45.5 9.128 45.5H5.026C3.63 45.5 2.5 44.37 2.5 42.974V18.692C2.5 17.298 3.63 16.166 5.026 16.166H9.128C10.524 16.166 11.654 17.298 11.654 18.692Z" fill="#7A838C"/>
<path fill-rule="evenodd" clip-rule="evenodd" d="M34.218 30.9999V42.9739C34.218 43.6439 33.952 44.2859 33.478 44.7599C33.004 45.2339 32.362 45.4999 31.692 45.4999H27.59C26.92 45.4999 26.278 45.2339 25.804 44.7599C25.33 44.2859 25.064 43.6439 25.064 42.9739V30.9999C25.064 30.3299 25.33 29.6879 25.804 29.2139C26.278 28.7399 26.92 28.4739 27.59 28.4739H31.692C32.362 28.4739 33.004 28.7399 33.478 29.2139C33.952 29.6879 34.218 30.3299 34.218 30.9999Z" fill="#7A838C"/>
<path fill-rule="evenodd" clip-rule="evenodd" d="M22.936 24.8458V42.9738C22.936 44.3698 21.806 45.4998 20.41 45.4998H16.308C14.912 45.4998 13.782 44.3698 13.782 42.9738V24.8458C13.782 24.1758 14.048 23.5338 14.522 23.0598C14.996 22.5858 15.638 22.3198 16.308 22.3198H20.41C21.806 22.3198 22.936 23.4518 22.936 24.8458Z" fill="#7A838C"/>
<path fill-rule="evenodd" clip-rule="evenodd" d="M45.5 24.8458V42.9738C45.5 44.3698 44.37 45.4998 42.974 45.4998H38.872C37.476 45.4998 36.346 44.3698 36.346 42.9738V24.8458C36.346 24.1758 36.612 23.5338 37.086 23.0598C37.56 22.5858 38.202 22.3198 38.872 22.3198H42.974C44.37 22.3198 45.5 23.4518 45.5 24.8458Z" fill="#7A838C"/>
<path fill-rule="evenodd" clip-rule="evenodd" d="M4.9 5.1999C4.236 4.7039 4.102 3.7619 4.6 3.0999C5.096 2.4379 6.036 2.3039 6.7 2.7999L18.606 11.7299H24.26C24.722 11.7299 25.156 11.9419 25.44 12.3039L30.014 18.1259L40.614 7.0639C41.186 6.4659 42.136 6.4459 42.734 7.0199C43.332 7.5919 43.352 8.5419 42.78 9.1399L30.984 21.4479C30.684 21.7619 30.262 21.9299 29.828 21.9079C29.394 21.8879 28.99 21.6779 28.722 21.3359L23.532 14.7299H18.106C17.782 14.7299 17.466 14.6259 17.206 14.4299L4.9 5.1999Z" fill="#7A838C"/>
</g>
</svg>
