<svg width="48" height="48" viewBox="0 0 48 48" fill="none" xmlns="http://www.w3.org/2000/svg">
<g opacity="0.4">
<path fill-rule="evenodd" clip-rule="evenodd" d="M2.51737 30.7133H16.345C16.2471 30.1166 16.1953 29.5044 16.1953 28.8799C16.1953 26.3307 17.0448 23.98 18.4754 22.0943C16.7921 21.1123 14.8344 20.5491 12.745 20.5491C7.26244 20.5491 2.68509 24.4231 1.59975 29.5829C1.47656 30.1687 1.91878 30.7133 2.51737 30.7133ZM12.7451 8.09424C15.9255 8.09424 18.5038 10.6726 18.5038 13.8529C18.5038 17.0333 15.9255 19.6116 12.7451 19.6116C9.56475 19.6116 6.98644 17.0333 6.98644 13.8529C6.98644 10.6725 9.56465 8.09424 12.7451 8.09424ZM43.2637 45.7252C42.9246 46.0746 42.3612 46.0831 42.0117 45.744L36.6637 40.5545C36.3142 40.2155 36.3058 39.652 36.6449 39.3026L36.7549 39.1892L33.7601 36.2833C32.0583 37.7389 29.8489 38.6185 27.4339 38.6185C22.0554 38.6185 17.6953 34.2584 17.6953 28.8799C17.6953 23.5015 22.0554 19.1414 27.4339 19.1414C32.8123 19.1414 37.1724 23.5015 37.1724 28.8799C37.1724 30.9574 36.5216 32.8828 35.413 34.4637L38.4659 37.4261L38.576 37.3127C38.915 36.9633 39.4785 36.9549 39.8279 37.294L45.1759 42.4835C45.5253 42.8227 45.5338 43.3859 45.1947 43.7354L43.2637 45.7252ZM27.4339 21.3369C23.268 21.3369 19.8908 24.7141 19.8908 28.88C19.8908 33.046 23.268 36.4231 27.4339 36.4231C31.5997 36.4231 34.9769 33.046 34.9769 28.88C34.9769 24.7141 31.5997 21.3369 27.4339 21.3369Z" fill="#7A838C"/>
<path d="M30.1108 25.8409L26.4429 29.5454L24.7574 27.8599C24.3206 27.4231 23.612 27.4232 23.1752 27.8599C22.7384 28.2967 22.7384 29.0054 23.1752 29.4422L25.6542 31.9212C26.091 32.358 26.7997 32.3581 27.2364 31.9212C28.7307 30.4269 30.2079 28.9159 31.6953 27.4148C32.129 26.9771 32.1277 26.2708 31.6905 25.8361C31.2533 25.4012 30.545 25.4025 30.1108 25.8409Z" fill="#7A838C"/>
<path d="M24.8704 12.5977C25.1244 12.923 25.594 12.9806 25.9192 12.7266L32.0169 7.97858L38.0541 9.93524C38.3307 10.024 38.6211 9.94321 38.813 9.75064L43.7135 4.80824C43.697 5.19833 43.9856 5.53986 44.3795 5.58327C44.7905 5.62864 45.1604 5.33221 45.2057 4.92121L45.4334 2.88458C45.5157 2.40655 45.1192 1.96771 44.6299 2.00989L42.5427 2.19299C42.1302 2.22852 41.8245 2.59189 41.8601 3.00449C41.8956 3.41699 42.259 3.72271 42.6716 3.68708L42.7235 3.68249L38.0755 8.37017L32.0993 6.43367C31.8719 6.36083 31.6135 6.39814 31.411 6.5563L24.9993 11.5489C24.6741 11.8029 24.6164 12.2725 24.8704 12.5977Z" fill="#7A838C"/>
<path d="M26.4357 15.7152H24.4827C24.0696 15.7152 23.7327 16.0521 23.7327 16.4652V18.266C24.8177 17.8878 25.9781 17.6707 27.1857 17.6446V16.4652C27.1857 16.0521 26.8488 15.7152 26.4357 15.7152Z" fill="#7A838C"/>
<path d="M42.9679 7.66049C42.9679 7.24742 43.3048 6.91049 43.7179 6.91049H45.671C46.084 6.91049 46.421 7.24742 46.421 7.66049V21.7115C46.421 22.1245 46.084 22.4615 45.671 22.4615H43.7179C43.3048 22.4615 42.9679 22.1245 42.9679 21.7115V7.66049Z" fill="#7A838C"/>
<path d="M36.5562 13.6293C36.5562 13.2162 36.8931 12.8793 37.3062 12.8793H39.2593C39.6724 12.8793 40.0093 13.2162 40.0093 13.6293V21.7115C40.0094 22.1246 39.6724 22.4615 39.2593 22.4615H37.3062C36.8931 22.4615 36.5561 22.1245 36.5562 21.7115V13.6293Z" fill="#7A838C"/>
<path d="M30.1445 12.19C30.1445 11.777 30.4814 11.44 30.8945 11.44H32.8475C33.2605 11.44 33.5975 11.777 33.5975 12.19V19.4822C32.5544 18.7966 31.3904 18.2803 30.1445 17.9714V12.19Z" fill="#7A838C"/>
</g>
</svg>
