<svg width="48" height="48" viewBox="0 0 48 48" fill="none" xmlns="http://www.w3.org/2000/svg">
<path opacity="0.4" d="M43.6875 32.4377H29.625C27.3272 32.4377 25.2834 33.5459 24 35.2559C22.7166 33.5459 20.6728 32.4377 18.375 32.4377H4.3125C3.53625 32.4377 2.90625 33.0677 2.90625 33.844V35.2502H14.6991C17.9889 35.2502 21.2618 35.9019 24 37.7271C26.7373 35.9024 30.0097 35.2502 33.3009 35.2502H45.0938V33.844C45.0938 33.0677 44.4637 32.4377 43.6875 32.4377Z" fill="#37474F"/>
<path opacity="0.4" d="M21.3607 42.7603C19.8022 41.5095 17.5607 40.8752 14.6986 40.8752H1.40625C0.629625 40.8752 0 40.2456 0 39.469C0 38.6924 0.629625 38.0627 1.40625 38.0627H14.6986C18.2169 38.0627 21.0507 38.9053 23.1211 40.5669C23.6342 40.9787 24.3655 40.9789 24.8789 40.5669C26.9493 38.9053 29.7831 38.0627 33.3014 38.0627H46.5938C47.3704 38.0627 48 38.6924 48 39.469C48 40.2456 47.3704 40.8752 46.5938 40.8752H33.3014C30.4393 40.8752 28.1978 41.5095 26.6393 42.7603C25.1078 43.9895 22.9087 44.0027 21.3607 42.7603Z" fill="#37474F"/>
<path d="M33.8438 18.5439V22.5939C33.8438 23.1264 33.5428 23.6139 33.0666 23.8521L26.8472 26.9608C26.1581 27.3058 25.5272 27.7502 24.9722 28.2808C24.4284 28.8002 23.5716 28.8002 23.0278 28.2808C22.4728 27.7502 21.8419 27.3058 21.1528 26.9608L14.9334 23.8521C14.4572 23.6139 14.1562 23.1264 14.1562 22.5939V18.5439L22.8412 21.0255C23.5837 21.2379 24.3893 21.2456 25.1587 21.0255L33.8438 18.5439Z" fill="#37474F"/>
<path d="M39.4688 16.9373V25.4066C39.4688 26.1829 38.8387 26.8129 38.0625 26.8129C37.2862 26.8129 36.6562 26.1829 36.6562 25.4066V17.7407L39.4688 16.9373Z" fill="#37474F"/>
<path d="M23.6135 18.3212L3.92604 12.6962C2.57172 12.3093 2.56938 10.3795 3.92604 9.99188L23.6135 4.36688C23.866 4.2947 24.1337 4.2947 24.3861 4.36688L44.0736 9.99188C45.4279 10.3788 45.4303 12.3085 44.0736 12.6962L24.3861 18.3212C24.1347 18.393 23.867 18.3936 23.6135 18.3212Z" fill="#37474F"/>
</svg>
