<svg width="48" height="48" viewBox="0 0 48 48" fill="none" xmlns="http://www.w3.org/2000/svg">
<g opacity="0.4" clip-path="url(#clip0_5585_73122)">
<path d="M25.143 9.19587V6.85714H30.8571C31.1602 6.85714 31.451 6.73703 31.6653 6.52274C31.88 6.30804 32.0001 6.01758 32.0001 5.71415V1.143C32.0001 0.839565 31.88 0.549107 31.6653 0.334403C31.451 0.120117 31.1602 0 30.8571 0H24C23.697 0 23.4061 0.120117 23.1918 0.334403C22.9771 0.549107 22.857 0.839565 22.857 1.143V9.19587C17.1429 9.14272 8.00014 13.7143 6.92703 20.5714H41.073C39.9999 13.7143 30.8571 9.14272 25.143 9.19587Z" fill="#7A838C"/>
<path d="M4.57157 43.4285H43.4284C44.0596 43.4285 44.5714 43.9403 44.5714 44.5715V46.857C44.5714 47.4882 44.0596 48 43.4284 48H4.57157C3.94043 48 3.42857 47.4882 3.42857 46.857V44.5715C3.42857 43.9403 3.94043 43.4285 4.57157 43.4285Z" fill="#7A838C"/>
<path d="M8.00014 29.7141H12.5713V41.1428H8.00014V29.7141Z" fill="#7A838C"/>
<path d="M5.71415 27.4285H42.2859C43.5481 27.4285 44.5714 26.4052 44.5714 25.1429C44.5714 23.8802 43.5481 22.8569 42.2859 22.8569H5.71415C4.45187 22.8569 3.42857 23.8802 3.42857 25.1429C3.42857 26.4052 4.45187 27.4285 5.71415 27.4285Z" fill="#7A838C"/>
<path d="M26.2856 29.7141H30.8572V41.1428H26.2856V29.7141Z" fill="#7A838C"/>
<path d="M17.1429 29.7141H21.7144V41.1428H17.1429V29.7141Z" fill="#7A838C"/>
<path d="M35.4287 29.7141H39.9999V41.1428H35.4287V29.7141Z" fill="#7A838C"/>
</g>
<defs>
<clipPath id="clip0_5585_73122">
<rect width="48" height="48" fill="white"/>
</clipPath>
</defs>
</svg>
