<svg width="48" height="48" viewBox="0 0 48 48" fill="none" xmlns="http://www.w3.org/2000/svg">
<g opacity="0.4">
<path d="M8.14519 14.5586L16.1441 22.5575C17.9598 21.105 20.165 20.1611 22.5938 19.8878V8.56689C17.0625 8.89099 12.0403 11.0936 8.14519 14.5586Z" fill="#7A838C"/>
<path d="M6.15666 16.5471C2.3985 20.7717 0 26.3161 0 32.4019C0 33.1792 0.628969 33.8082 1.40625 33.8082H9.9375C10.7148 33.8082 11.3438 33.1792 11.3438 32.4019C11.3438 29.4195 12.4235 26.7114 14.1556 24.5461L6.15666 16.5471Z" fill="#7A838C"/>
<path d="M34.8654 21.406C34.3916 20.9927 33.705 20.9392 33.1818 21.2783L20.9774 29.0634C19.3473 30.1043 18.375 31.8773 18.375 33.8081C18.375 36.9104 20.8977 39.4331 24 39.4331C26.1808 39.4331 28.183 38.156 29.1004 36.1798L35.2129 23.0567C35.4766 22.4909 35.3351 21.818 34.8654 21.406Z" fill="#7A838C"/>
<path d="M41.8433 16.5471L37.7101 20.6804C38.2306 21.7914 38.299 23.092 37.7618 24.2446L35.9126 28.2144C36.3887 29.5221 36.6563 30.9277 36.6563 32.4019C36.6563 33.1792 37.2852 33.8082 38.0625 33.8082H46.5938C47.371 33.8082 48 33.1792 48 32.4019C48 26.3161 45.6015 20.7717 41.8433 16.5471Z" fill="#7A838C"/>
<path d="M25.4062 8.56689V19.8878C26.5902 20.021 27.7183 20.319 28.7768 20.7521L31.6699 18.9065C32.8289 18.1554 34.2453 17.9942 35.7203 18.693L39.8548 14.5586C35.9597 11.0936 30.9375 8.89099 25.4062 8.56689Z" fill="#7A838C"/>
</g>
</svg>
