<svg width="48" height="48" viewBox="0 0 48 48" fill="none" xmlns="http://www.w3.org/2000/svg">
<path d="M39.81 30.8699L30.9675 36.1424C30.7041 36.5854 30.3114 36.9372 29.8421 37.1504C29.3728 37.3636 28.8495 37.428 28.3425 37.3349L20.61 35.8874C20.4165 35.8481 20.2462 35.7342 20.1359 35.5704C20.0257 35.4066 19.9843 35.2059 20.0207 35.0119C20.0572 34.8178 20.1685 34.6459 20.3307 34.5332C20.4929 34.4206 20.6929 34.3762 20.8875 34.4099L28.6125 35.8574C28.8369 35.8911 29.0662 35.8534 29.268 35.7498C29.4699 35.6462 29.6341 35.4818 29.7375 35.2799C29.8462 35.0298 29.853 34.7471 29.7563 34.4921C29.6596 34.2371 29.4672 34.03 29.22 33.9149L20.7675 30.0674C20.3877 29.898 19.9745 29.8167 19.5589 29.8297C19.1433 29.8427 18.736 29.9496 18.3675 30.1424C16.8837 30.8305 15.311 31.3076 13.695 31.5599C12.6082 31.6629 11.5159 31.6955 10.4249 31.6574L10.425 37.8749L26.1525 42.3449C26.9756 42.5826 27.8417 42.6326 28.6867 42.4911C29.5317 42.3496 30.3342 42.0203 31.035 41.5274L41.8275 33.9824C42.2151 33.7041 42.4807 33.2873 42.5692 32.8184C42.6577 32.3495 42.5622 31.8646 42.3027 31.4642C42.0432 31.0638 41.6395 30.7787 41.1753 30.6681C40.7112 30.5574 40.2223 30.6296 39.81 30.8699Z" fill="#37474F"/>
<path d="M8.175 29.2874H5.25C4.83579 29.2874 4.5 29.6231 4.5 30.0374V40.3049C4.5 40.7191 4.83579 41.0549 5.25 41.0549H8.175C8.58921 41.0549 8.925 40.7191 8.925 40.3049V30.0374C8.925 29.6231 8.58921 29.2874 8.175 29.2874Z" fill="#37474F"/>
<path opacity="0.4" d="M14.775 17.0099C15.2793 26.6175 27.1169 31.5816 34.2976 25.0947L26.22 17.0099C25.2793 17.0088 15.3888 17.0107 14.775 17.0099Z" fill="#37474F"/>
<path opacity="0.4" d="M35.3625 24.0299C36.3279 22.9489 37.0787 21.6941 37.575 20.3324C37.0545 20.3347 36.5348 20.2895 36.0225 20.1974C29.8803 19.2623 26.5231 11.8087 29.9927 6.5848C30.2756 6.14453 30.5941 5.72817 30.945 5.33989C29.7755 4.86712 28.5368 4.58846 27.2775 4.51489V15.9524C27.9517 16.6273 34.9186 23.5837 35.3625 24.0299Z" fill="#37474F"/>
<path d="M37.5525 3.92993C35.5761 3.93241 33.6813 4.71864 32.2838 6.11619C30.8862 7.51374 30.1 9.4085 30.0975 11.3849C30.5155 21.2622 44.5816 21.2672 45 11.3849C44.9979 9.40963 44.2129 7.51576 42.8168 6.11835C41.4208 4.72094 39.5277 3.93398 37.5525 3.92993ZM37.545 10.6349C38.0912 10.6383 38.6186 10.8342 39.0346 11.1882C39.4505 11.5422 39.7281 12.0316 39.8186 12.5703C39.9091 13.1089 39.8067 13.6622 39.5293 14.1327C39.252 14.6032 38.8175 14.9608 38.3024 15.1424L38.3025 15.9299C38.3025 16.1288 38.2235 16.3196 38.0828 16.4603C37.9422 16.6009 37.7514 16.6799 37.5525 16.6799C37.3536 16.6799 37.1628 16.6009 37.0222 16.4603C36.8815 16.3196 36.8025 16.1288 36.8025 15.9299V15.1424C36.3451 14.9871 35.9479 14.6922 35.6667 14.2994C35.3855 13.9066 35.2346 13.4355 35.235 12.9524C35.2386 12.7559 35.3192 12.5687 35.4595 12.431C35.5998 12.2933 35.7885 12.2162 35.985 12.2162C36.1816 12.2162 36.3703 12.2933 36.5105 12.431C36.6508 12.5687 36.7314 12.756 36.735 12.9525C36.735 13.1142 36.7829 13.2722 36.8728 13.4067C36.9626 13.5411 37.0903 13.6459 37.2397 13.7077C37.389 13.7696 37.5534 13.7858 37.712 13.7543C37.8706 13.7227 38.0162 13.6449 38.1306 13.5305C38.2449 13.4162 38.3227 13.2705 38.3543 13.112C38.3858 12.9534 38.3696 12.789 38.3078 12.6396C38.2459 12.4903 38.1411 12.3626 38.0067 12.2728C37.8722 12.1829 37.7142 12.135 37.5525 12.135C37.008 12.1281 36.4833 11.93 36.0701 11.5753C35.6569 11.2207 35.3815 10.732 35.2921 10.1949C35.2028 9.65774 35.3051 9.10627 35.5812 8.63693C35.8574 8.1676 36.2897 7.81028 36.8026 7.62748L36.8025 6.83993C36.806 6.64334 36.8866 6.456 37.0269 6.31822C37.1671 6.18044 37.3559 6.10325 37.5525 6.10325C37.7491 6.10326 37.9379 6.18046 38.0782 6.31825C38.2184 6.45604 38.299 6.64339 38.3025 6.83998V7.62743C38.7599 7.78279 39.1571 8.07762 39.4383 8.47045C39.7195 8.86327 39.8704 9.33435 39.87 9.81743C39.8663 10.0139 39.7856 10.201 39.6454 10.3386C39.5051 10.4762 39.3165 10.5533 39.12 10.5533C38.9235 10.5533 38.7349 10.4762 38.5946 10.3386C38.4544 10.201 38.3737 10.0138 38.37 9.81738C38.37 9.65602 38.3222 9.49827 38.2327 9.364C38.1432 9.22974 38.016 9.12497 37.867 9.06289C37.7181 9.00081 37.5541 8.98419 37.3957 9.01514C37.2373 9.04609 37.0917 9.12321 36.9771 9.23679C36.8624 9.35037 36.784 9.49534 36.7516 9.65342C36.7192 9.8115 36.7344 9.97563 36.7951 10.1251C36.8558 10.2746 36.9594 10.4028 37.0929 10.4935C37.2263 10.5843 37.3836 10.6335 37.545 10.6349Z" fill="#37474F"/>
<path opacity="0.4" d="M25.7775 15.5098C25.783 14.512 25.7735 5.20965 25.7775 4.50732C22.9194 4.69224 20.2263 5.91059 18.2004 7.93507C16.1745 9.95955 14.9544 12.6519 14.7675 15.5098C15.4251 15.498 24.8219 15.5184 25.7775 15.5098Z" fill="#37474F"/>
</svg>
