<svg width="48" height="48" viewBox="0 0 48 48" fill="none" xmlns="http://www.w3.org/2000/svg">
<g clip-path="url(#clip0_5585_73059)">
<path fill-rule="evenodd" clip-rule="evenodd" d="M5.27822 34.2652L10.7636 43.9576C11.0288 44.4262 10.8624 45.0267 10.3938 45.2919L8.52797 46.3479C8.05931 46.6131 7.45884 46.4467 7.19362 45.9781L1.70822 36.2857C1.443 35.8171 1.60941 35.2166 2.07806 34.9514L3.94387 33.8955C4.41253 33.6302 5.013 33.7966 5.27822 34.2652ZM4.02037 35.7181C3.65634 35.7713 3.40434 36.1096 3.45759 36.4736C3.51084 36.8376 3.84909 37.0896 4.21312 37.0364C4.57716 36.9831 4.82916 36.6449 4.77591 36.2809C4.72266 35.9168 4.38441 35.6649 4.02037 35.7181ZM21.6196 36.6105C22.3289 36.697 22.9091 36.4921 23.107 35.7538C23.2836 35.095 22.8637 34.4781 22.2469 34.2603C20.1471 33.8747 18.1155 33.1402 16.5174 32.5625C14.2417 31.7399 13.6594 31.5434 11.4135 32.8436L7.48462 35.1184L10.8055 40.9862L10.9333 40.9124C11.1114 40.81 11.3141 40.7893 11.4982 40.8384L20.6687 43.2933C21.9868 43.6461 22.7778 43.5039 23.8897 42.8193L36.4791 35.0672C36.8522 34.8375 37.035 34.2993 36.9802 33.7713C36.9577 33.5546 36.8924 33.3445 36.7804 33.1641C36.6755 32.9951 36.5278 32.8512 36.3342 32.7531C35.6947 32.4292 34.5762 32.5305 32.8364 33.5437L25.8699 37.6013C25.3043 37.9308 24.7219 38.1402 24.1172 38.2417C22.3792 38.5338 19.7752 37.7197 18.2162 37.2744C17.7187 37.1324 17.2136 36.9881 16.7227 36.8566C16.323 36.7498 16.0856 36.3393 16.1924 35.9396C16.2992 35.5399 16.7097 35.3026 17.1094 35.4094C18.6102 35.8114 20.0987 36.2951 21.6196 36.6105ZM23.8463 18.813C28.9807 18.813 33.143 22.9752 33.143 28.1096C33.143 29.5695 32.8062 30.9507 32.2064 32.18C31.1127 32.8013 30.0262 33.4489 28.9387 34.0823C30.6907 32.587 31.6953 30.4172 31.6953 28.1096C31.6953 23.775 28.1811 20.2608 23.8463 20.2608C19.5116 20.2608 15.9974 23.775 15.9974 28.1096C15.9974 29.1228 16.1894 30.0912 16.5391 30.9803C16.1674 30.847 15.8223 30.7257 15.5043 30.6227C15.2839 30.5511 15.0661 30.4986 14.8505 30.4628C14.6542 29.7113 14.5497 28.9227 14.5497 28.1096C14.5497 22.9752 18.7119 18.813 23.8463 18.813ZM26.6277 25.663C26.251 24.766 25.5353 24.183 24.5963 23.955V23.6174C24.5963 23.2032 24.2605 22.8674 23.8463 22.8674C23.4322 22.8674 23.0963 23.2032 23.0963 23.6174V23.9657C21.9067 24.2544 20.9964 25.193 21.0587 26.475C21.1317 27.9803 22.4181 28.6065 23.7327 28.8223C24.3367 28.9215 25.2777 29.1226 25.3672 29.8593C25.3729 29.9063 25.3759 29.937 25.3762 29.952C25.3903 30.5448 24.6421 30.7731 24.1693 30.8304C24.0708 30.8423 23.988 30.8491 23.9215 30.8507C23.235 30.8671 22.4763 30.5656 22.2955 29.8405C22.1968 29.4393 21.7915 29.194 21.3903 29.2926C20.989 29.3914 20.7438 29.7966 20.8424 30.1979C21.1193 31.3087 22.0059 32.032 23.0963 32.2651V32.6017C23.0963 32.8003 23.1736 32.9808 23.2995 33.115C23.1043 32.9955 22.8925 32.8971 22.6671 32.824C22.6253 32.8106 22.5832 32.8011 22.5413 32.7952C21.1927 32.5496 19.8417 32.138 18.6248 31.7225C17.9139 30.697 17.4974 29.4519 17.4974 28.1096C17.4974 24.6031 20.3398 21.7607 23.8463 21.7607C27.3529 21.7607 30.1953 24.603 30.1953 28.1096C30.1953 31.3862 27.6979 34.1293 24.4394 34.4311C24.2526 33.9846 23.9437 33.5915 23.5613 33.2956C23.6492 33.3318 23.7455 33.3517 23.8464 33.3517C24.2606 33.3517 24.5964 33.0159 24.5964 32.6017V32.2799C25.8083 32.0533 26.9025 31.2648 26.8703 29.9168C26.8682 29.826 26.8633 29.7479 26.8554 29.6835C26.6683 28.1419 25.3318 27.5688 23.973 27.3457C23.4475 27.2595 22.5849 27.0665 22.5529 26.4047C22.5252 25.8365 23.011 25.5042 23.5137 25.403C24.2233 25.2601 24.9532 25.5484 25.245 26.2431C25.4051 26.625 25.8446 26.8047 26.2265 26.6445C26.6082 26.4843 26.7879 26.0449 26.6277 25.663ZM26.5192 35.4915C25.88 35.8638 25.0642 36.4196 24.3717 36.6431C24.4782 36.4169 24.5585 36.1687 24.6033 35.9224C25.2697 35.8585 25.9119 35.7114 26.5192 35.4915Z" fill="#37474F"/>
<g opacity="0.4">
<path d="M45.4799 22.2196L32.8956 22.2197C31.6043 20.24 29.681 18.7104 27.4121 17.9166C29.237 14.9423 32.5183 12.958 36.2635 12.958C41.22 12.958 45.3646 16.4327 46.3953 21.079C46.526 21.6676 46.0826 22.2196 45.4799 22.2196Z" fill="#37474F"/>
<path d="M41.5109 6.77316C41.5109 3.87516 39.1616 1.52588 36.2636 1.52588C33.3656 1.52588 31.0162 3.87516 31.0162 6.77316C31.0162 9.67116 33.3656 12.0205 36.2636 12.0205C39.1616 12.0205 41.5109 9.67116 41.5109 6.77316Z" fill="#37474F"/>
</g>
</g>
<defs>
<clipPath id="clip0_5585_73059">
<rect width="48" height="48" fill="white"/>
</clipPath>
</defs>
</svg>
