<svg width="48" height="48" viewBox="0 0 48 48" fill="none" xmlns="http://www.w3.org/2000/svg">
<g clip-path="url(#clip0_5585_73063)">
<path opacity="0.4" d="M21.8291 19.8606C23.989 23.0706 23.6515 27.4656 20.8166 30.3006C12.755 37.7212 1.72718 26.6883 9.14656 18.6305C11.644 16.1331 15.349 15.578 18.394 16.9506L19.384 15.7731C13.0747 12.4667 5.13478 17.281 5.23915 24.4657C5.08401 29.6374 9.8085 34.3703 14.9817 34.2079C22.8841 34.2975 27.5713 24.9954 22.8266 18.6831L21.8291 19.8606Z" fill="#37474F"/>
<path d="M41.2315 11.3689V13.9656C41.2468 14.949 42.7153 14.9532 42.7315 13.9655V9.46558C42.7154 9.0524 42.3891 8.73334 41.9815 8.71558H37.4816C36.4978 8.73151 36.4939 10.199 37.4816 10.2156C37.4816 10.2156 40.2552 10.2156 40.2552 10.2156L32.3792 18.6549C31.7021 18.3397 30.8041 18.4322 30.2093 18.8628L26.0167 15.8137C26.8222 13.9134 25.3017 11.6719 23.2315 11.7156C20.858 11.6424 19.3644 14.5722 20.7873 16.4436L14.4092 23.9815C14.1415 24.2971 14.181 24.7703 14.4971 25.0383C14.812 25.3041 15.2855 25.2679 15.5539 24.9497L21.935 17.4089C22.9325 17.9355 24.297 17.7507 25.127 17.0216L29.3339 20.0809C28.8726 21.4816 30.0114 22.9904 31.4816 22.9655C33.1262 23.0083 34.2762 21.113 33.4699 19.6849L41.2315 11.3689Z" fill="#37474F"/>
<path d="M41.9815 2.71558H14.2316C11.7501 2.71558 9.73155 4.73413 9.73155 7.21558V12.0232C1.05061 15.4981 -1.34226 27.5083 5.43429 34.0131C9.45566 38.1642 16.2074 39.1646 21.259 36.4206L24.724 42.3455C26.5442 45.6813 31.449 46.304 34.0766 43.5604C36.8144 40.9508 36.2026 36.0372 32.873 34.2156H41.9815C44.463 34.2156 46.4815 32.197 46.4815 29.7156V7.21558C46.4815 4.73413 44.463 2.71558 41.9815 2.71558ZM44.9815 29.7156C44.9815 31.3701 43.6361 32.7156 41.9815 32.7156H30.3094L26.9366 30.7431C28.1981 28.3747 28.7286 25.5351 28.3765 22.8231C27.9791 22.2381 27.7466 21.5331 27.7315 20.7755L25.8791 19.4256C28.5893 24.9991 26.1201 32.2868 20.5914 35.078C8.33066 41.2445 -3.01781 25.9133 6.49914 15.983C9.85445 12.527 15.3248 11.4996 19.7065 13.4331C19.8791 12.9456 20.1566 12.5106 20.5015 12.1431C17.6775 10.8455 14.231 10.6114 11.2315 11.4979V7.21558C11.2315 5.56104 12.5774 4.21558 14.2315 4.21558H41.9815C43.6361 4.21558 44.9815 5.56104 44.9815 7.21558V29.7156Z" fill="#37474F"/>
<path opacity="0.4" d="M42.7315 28.9656H34.4815C33.4981 28.9811 33.4937 30.4491 34.4816 30.4656H42.7315C43.715 30.4501 43.7194 28.982 42.7315 28.9656Z" fill="#37474F"/>
<path opacity="0.4" d="M42.7315 25.9656H38.2315C37.2469 25.9815 37.2447 27.4492 38.2316 27.4656H42.7315C43.7162 27.4497 43.7184 25.9819 42.7315 25.9656Z" fill="#37474F"/>
<path opacity="0.4" d="M19.4816 6.46558H13.4816C12.4975 6.48151 12.4943 7.94901 13.4816 7.96558H19.4816C20.4656 7.94965 20.4688 6.4821 19.4816 6.46558Z" fill="#37474F"/>
</g>
<defs>
<clipPath id="clip0_5585_73063">
<rect width="48" height="48" fill="white"/>
</clipPath>
</defs>
</svg>
