<svg width="48" height="48" viewBox="0 0 48 48" fill="none" xmlns="http://www.w3.org/2000/svg">
<path d="M40.4323 37.7187C39.4656 34.8416 35.6126 33.0406 32.8656 31.8334C31.7894 31.3621 28.8101 30.5624 28.452 29.2074C28.3238 28.7192 28.3411 28.2589 28.4462 27.8178C28.2806 27.8494 28.1126 27.8682 27.9389 27.8682H26.149C24.72 27.8682 23.5589 26.7056 23.5589 25.2776C23.5589 23.8506 24.7205 22.6904 26.149 22.6904H27.9389C28.5302 22.6904 29.0909 22.8906 29.543 23.2477C30.2059 23.1594 30.8453 23.0178 31.4414 22.832C32.2243 21.1918 32.8349 19.2306 32.9717 17.5424C33.5558 10.3194 29.1278 6.09343 22.7789 6.82399C18.1627 7.35535 15.4051 10.7974 15.107 15.2288C14.8056 19.7456 16.4803 23.0816 18.2592 25.5286C19.0382 26.5986 19.8566 27.2864 19.7309 28.5757C19.585 30.1002 17.9549 30.525 16.789 30.9934C15.4075 31.5483 13.9195 32.3902 13.2168 32.7795C10.7962 34.1163 8.13936 35.7262 7.54224 37.9285C6.21984 42.8091 10.6858 44.2875 14.3726 44.9701C17.5368 45.5538 21.1046 45.5998 24.0394 45.5998C29.3477 45.5998 38.893 45.3872 40.4323 41.3969C40.8701 40.2646 40.6824 38.4603 40.4323 37.7187Z" fill="#37474F"/>
<path opacity="0.4" d="M29.0717 24.5485C28.8288 24.1785 28.4136 23.9327 27.9398 23.9327H26.1499C25.403 23.9327 24.8006 24.5361 24.8006 25.2791C24.8006 26.025 25.403 26.6293 26.1499 26.6293H27.9398C28.4626 26.6293 28.9061 26.3313 29.1298 25.9002C31.6253 25.7039 33.7958 24.9417 35.3194 23.8161C35.6693 24.0417 36.083 24.1737 36.5294 24.1737H36.6418C37.8859 24.1737 38.892 23.1666 38.892 21.921V17.4244C38.892 16.5287 38.3669 15.7559 37.6094 15.3969C37.2792 8.17622 31.3018 2.3999 24 2.3999C16.6982 2.3999 10.7198 8.17622 10.391 15.3969C9.63216 15.7564 9.10752 16.5287 9.10752 17.4244V21.921C9.10752 23.1666 10.1146 24.1737 11.3558 24.1737H11.4696C12.7118 24.1737 13.7194 23.1666 13.7194 21.921V17.4244C13.7194 16.5417 13.2091 15.7804 12.4675 15.4122C12.7886 9.32822 17.8373 4.47878 24 4.47878C30.1603 4.47878 35.2114 9.32822 35.531 15.4122C34.7904 15.7809 34.2806 16.5417 34.2806 17.4244V21.921C34.2806 22.2196 34.3387 22.4975 34.441 22.7572C33.1296 23.6956 31.2206 24.3642 29.0717 24.5485Z" fill="#37474F"/>
</svg>
