<svg width="48" height="48" viewBox="0 0 48 48" fill="none" xmlns="http://www.w3.org/2000/svg">
<path opacity="0.4" d="M42.7969 12.1875H38.5781V48H42.7969C43.5734 48 44.2031 47.3704 44.2031 46.5938V13.5938C44.2031 12.8171 43.5734 12.1875 42.7969 12.1875Z" fill="#37474F"/>
<path opacity="0.4" d="M3.79688 13.5938V46.5938C3.79688 47.3704 4.4265 48 5.20312 48H9.42188V12.1875H5.20312C4.4265 12.1875 3.79688 12.8171 3.79688 13.5938Z" fill="#37474F"/>
<path d="M34.3594 5.625H13.6406C12.864 5.625 12.2344 6.25462 12.2344 7.03125V48H18.375V38.1562C18.375 37.3796 19.0046 36.75 19.7812 36.75H28.2188C28.9953 36.75 29.625 37.3796 29.625 38.1562V48H35.7656V7.03125C35.7656 6.25462 35.1359 5.625 34.3594 5.625ZM21.1875 11.25H26.8125C27.589 11.25 28.2188 11.8796 28.2188 12.6562C28.2188 13.4329 27.589 14.0625 26.8125 14.0625H21.1875C20.4109 14.0625 19.7812 13.4329 19.7812 12.6562C19.7812 11.8796 20.4109 11.25 21.1875 11.25ZM28.6087 28.2612C28.3285 29.8307 27.0619 31.0504 25.4229 31.4521V31.5938C25.4229 32.3704 24.7933 33 24.0167 33C23.2401 33 22.6104 32.3704 22.6104 31.5938V31.3851C21.4833 31.0901 20.4685 30.4912 19.7019 29.6453C19.1803 29.0699 19.224 28.1806 19.7995 27.659C20.3749 27.1373 21.2643 27.1811 21.7858 27.7565C22.3675 28.3981 23.2843 28.7812 24.2387 28.7812C25.1277 28.7812 25.7512 28.2654 25.8402 27.7668C25.9562 27.1172 24.9378 26.6877 24.6229 26.5716C23.0628 25.9961 21.6772 25.3793 21.619 25.3534C21.5512 25.3232 21.4861 25.2877 21.424 25.2472C20.3163 24.525 19.7453 23.2586 19.9343 21.9423C20.1352 20.5432 21.1556 19.4043 22.5977 18.9698C22.602 18.9685 22.6062 18.9676 22.6105 18.9664V18.75C22.6105 17.9734 23.2402 17.3438 24.0168 17.3438C24.7934 17.3438 25.423 17.9734 25.423 18.75V18.9101C26.7705 19.2462 27.6866 19.9912 27.8377 20.1201C28.4286 20.6242 28.4989 21.5118 27.9948 22.1026C27.492 22.6919 26.6077 22.7633 26.0169 22.2637C25.9778 22.2317 24.7588 21.2563 23.4089 21.6629C22.8494 21.8315 22.7395 22.1939 22.7183 22.3419C22.701 22.463 22.7042 22.6786 22.8937 22.8416C23.2657 23.0041 24.3902 23.488 25.5962 23.9329C28.2147 24.8988 28.8694 26.8021 28.6087 28.2612Z" fill="#37474F"/>
<path opacity="0.4" d="M21.1875 39.5625H26.8125V48H21.1875V39.5625Z" fill="#37474F"/>
<path opacity="0.4" d="M30.75 1.40625C30.75 0.629625 30.1203 0 29.3438 0H18.6562C17.8796 0 17.25 0.629625 17.25 1.40625V2.8125H30.75V1.40625Z" fill="#37474F"/>
</svg>
