<svg width="24" height="24" viewBox="0 0 24 24" fill="none" xmlns="http://www.w3.org/2000/svg">
<g clip-path="url(#clip0_5918_81172)">
<path d="M0 3H24V21H0V3Z" fill="#E41E20"/>
<path d="M10.2005 6.49878C10.028 6.49878 9.73922 6.55503 9.74297 6.68628C9.25547 6.60753 9.20672 6.80628 9.23672 6.98628C9.28172 6.91503 9.33797 6.87378 9.38297 6.87003C9.44672 6.85878 9.51422 6.88128 9.58547 6.92253C9.65267 6.96469 9.71332 7.01649 9.76547 7.07628C9.59297 7.11753 9.45797 7.09128 9.32297 7.06878C9.24668 7.05252 9.17416 7.02198 9.10922 6.97878C9.05297 6.94128 9.03422 6.90378 8.94797 6.81753C8.84672 6.71253 8.73797 6.74253 8.77172 6.90378C8.85047 7.05378 8.98172 7.12128 9.14672 7.15128C9.22547 7.16253 9.34547 7.18878 9.48047 7.18878C9.61547 7.18878 9.76547 7.17003 9.84797 7.18878C9.79922 7.21878 9.74297 7.27503 9.63047 7.29378C9.51797 7.31628 9.34922 7.22628 9.24422 7.20378C9.25547 7.29003 9.36797 7.37253 9.58547 7.41753C9.94547 7.49253 10.2417 7.55253 10.4405 7.66128C10.5976 7.74891 10.7364 7.86606 10.8492 8.00628C11.0255 8.21253 11.0367 8.37378 11.0442 8.41128C11.0817 8.74128 10.9655 8.92878 10.748 8.98878C10.643 9.01503 10.448 8.96253 10.3805 8.88003C10.3055 8.79753 10.2417 8.65503 10.2605 8.43003C10.2792 8.34753 10.3767 8.11878 10.2942 8.07378C9.90321 7.8589 9.4986 7.66975 9.08297 7.50753C8.98922 7.47003 8.91422 7.59753 8.88422 7.65003C8.60732 7.61143 8.3425 7.51164 8.10898 7.35791C7.87547 7.20418 7.67913 7.00037 7.53422 6.76128C7.37672 6.47628 7.11047 6.76128 7.15547 7.03503C7.22672 7.33503 7.45547 7.55253 7.73297 7.71003C8.01422 7.86378 8.37047 8.01753 8.72672 8.01003C8.92172 8.04753 8.91797 8.29503 8.68922 8.34378C8.23547 8.34378 7.87172 8.33628 7.53047 8.00628C7.27172 7.77003 7.12922 8.05128 7.20047 8.20878C7.32797 8.70003 8.02922 8.83878 8.73797 8.68128C9.01547 8.63628 8.85047 8.92878 8.77547 8.93253C8.47547 9.14628 7.94672 9.35253 7.47797 8.93253C7.26422 8.76753 7.11797 8.90253 7.20047 9.13878C7.40672 9.75753 8.20172 9.62628 8.74547 9.32628C8.88422 9.24753 9.01172 9.42753 8.84297 9.56628C8.16422 10.0388 7.82672 10.0463 7.51922 9.86628C7.13672 9.71253 7.10672 10.1363 7.33172 10.2788C7.58297 10.4288 8.22422 10.3163 8.69672 10.0163C8.89922 9.86628 8.90672 10.1025 8.77922 10.1963C8.22047 10.68 7.99922 10.8075 7.41797 10.7288C7.12922 10.7063 7.13297 11.0625 7.35797 11.2013C7.66922 11.3925 8.27672 11.0775 8.74547 10.6838C8.94422 10.5788 8.97797 10.7513 8.88047 10.9575C8.67288 11.2513 8.39067 11.4843 8.06297 11.6325C7.80047 11.7338 7.55297 11.7188 7.37672 11.6588C7.15922 11.5838 7.13297 11.8088 7.25297 12.0113C7.32422 12.135 7.62047 12.1725 7.94297 12.06C8.26547 11.9475 8.61047 11.6775 8.84672 11.3663C9.05297 11.1825 9.03047 11.4263 8.93297 11.5988C8.46047 12.3488 8.02547 12.6263 7.45172 12.5813C7.20047 12.5363 7.14047 12.7313 7.30172 12.9188C7.58672 13.1513 7.93922 13.1438 8.25422 12.9113C8.52797 12.6488 9.05672 12.0713 9.33422 11.7638C9.52922 11.61 9.59297 11.7638 9.53297 12.0788C9.48047 12.2588 9.35297 12.4538 8.99672 12.5888C8.75297 12.7275 8.93672 12.9188 9.11672 12.9263C9.21797 12.9263 9.42047 12.8063 9.57797 12.6338C9.78047 12.4013 9.79547 12.2475 9.90797 11.8875C10.013 11.715 10.2042 11.7975 10.2042 11.9775C10.1105 12.3375 10.0355 12.4013 9.84797 12.5475C9.67172 12.7163 9.97172 12.7725 10.073 12.7013C10.3655 12.5063 10.4705 12.2513 10.568 12.0188C10.643 11.8538 10.8455 11.9325 10.748 12.2063C10.523 12.8588 10.148 13.1138 9.49922 13.2488C9.43547 13.26 9.39422 13.2975 9.41672 13.3725L9.67922 13.635C9.27797 13.755 8.95172 13.8225 8.54672 13.935L7.99172 13.5675C7.94297 13.4475 7.91672 13.26 7.62422 13.3913C7.42922 13.3013 7.33547 13.335 7.22672 13.4288C7.38422 13.4288 7.45172 13.4738 7.51547 13.545C7.59797 13.7588 7.78547 13.7813 7.97672 13.7213C8.10047 13.8225 8.16422 13.905 8.29172 14.01L7.66547 13.9913C7.44047 13.755 7.26797 13.7663 7.11047 13.9538C6.98672 13.9725 6.93797 13.9725 6.85547 14.1188C6.98297 14.0663 7.06547 14.0513 7.12172 14.1075C7.35797 14.2463 7.51172 14.2163 7.62797 14.1075L8.28422 14.1488C8.20172 14.2238 8.08922 14.2613 8.00297 14.3288C7.66547 14.2313 7.48547 14.3663 7.42547 14.64C7.37807 14.7498 7.36248 14.8706 7.38047 14.9888C7.41047 14.8763 7.46672 14.7825 7.56422 14.7263C7.86422 14.8013 7.97672 14.6775 7.99547 14.4975C8.14547 14.3775 8.36297 14.3513 8.50922 14.2313C8.68172 14.2838 8.76422 14.3175 8.93672 14.3738C8.99672 14.5613 9.13547 14.6325 9.36047 14.5838C9.62297 14.5913 9.57797 14.7038 9.60047 14.79C9.67547 14.6663 9.67172 14.5425 9.50672 14.43C9.44672 14.2688 9.31172 14.1938 9.13922 14.2875C8.97422 14.2425 8.93297 14.175 8.76797 14.1263C9.18047 13.995 9.47297 13.965 9.88547 13.8338L10.1742 14.0888C10.2305 14.1225 10.283 14.13 10.3167 14.0888C10.5755 13.7138 10.6917 13.3875 10.928 13.14C11.0217 13.035 11.138 12.9 11.2655 12.8663C11.3292 12.8475 11.408 12.8588 11.4605 12.915C11.5092 12.9675 11.5505 13.0688 11.5355 13.2225C11.5092 13.4363 11.4567 13.5075 11.3967 13.635C11.333 13.7663 11.2617 13.845 11.183 13.9463C11.033 14.145 10.8305 14.2613 10.7105 14.34C10.4705 14.4938 10.373 14.4263 10.1855 14.415C9.94547 14.4413 9.88547 14.5575 10.0805 14.7188C10.2605 14.8163 10.4255 14.8275 10.5605 14.8013C10.673 14.7788 10.808 14.6325 10.9055 14.5538C11.0105 14.43 11.1905 14.5763 11.0667 14.7225C10.8455 14.985 10.628 15.1575 10.3542 15.1538C10.0655 15.1913 10.1217 15.3525 10.3092 15.4313C10.6542 15.57 10.9617 15.3075 11.1192 15.1313C11.2392 15 11.3255 14.9963 11.3067 15.2025C11.183 15.5738 11.0217 15.7163 10.7517 15.735C10.5342 15.7125 10.5305 15.885 10.6917 15.9975C11.0517 16.245 11.3142 15.8175 11.438 15.5625C11.5242 15.33 11.6592 15.4388 11.6742 15.63C11.6742 15.8888 11.5617 16.095 11.2505 16.3575C11.4867 16.7363 11.7642 17.1225 12.0005 17.5013L12.7205 9.47628L12.0005 8.21253C11.9255 8.14503 11.6705 7.84503 11.6067 7.80003C11.5805 7.77753 11.5692 7.76253 11.603 7.74753C11.6367 7.73253 11.7155 7.71753 11.7717 7.71003C11.6217 7.55628 11.4867 7.50753 11.198 7.42503C11.2692 7.39503 11.3367 7.41003 11.5467 7.40253C11.4179 7.2294 11.2422 7.09669 11.0405 7.02003C11.198 6.90753 11.228 6.90003 11.3855 6.76878C11.137 6.74959 10.8917 6.70177 10.6542 6.62628C10.5124 6.55889 10.3603 6.51579 10.2042 6.49878H10.2005ZM10.2305 6.81378C10.373 6.81378 10.4592 6.86253 10.4592 6.92253C10.4592 6.98253 10.373 7.03128 10.2305 7.03128C10.088 7.03128 9.99797 6.97503 9.99797 6.91878C9.99797 6.85878 10.088 6.81378 10.2305 6.81378Z" fill="black"/>
</g>
<defs>
<clipPath id="clip0_5918_81172">
<rect y="3" width="24" height="18" rx="4" fill="white"/>
</clipPath>
</defs>
</svg>
