<svg width="24" height="24" viewBox="0 0 24 24" fill="none" xmlns="http://www.w3.org/2000/svg">
<g clip-path="url(#clip0_5918_81176)">
<path d="M12 3H24V21H12V3Z" fill="white"/>
<path d="M0 3H12V21H0V3Z" fill="#006233"/>
<path d="M15.8991 9.75C15.4038 8.89211 14.6392 8.22163 13.724 7.84254C12.8088 7.46346 11.7941 7.39695 10.8373 7.65334C9.88042 7.90972 9.0349 8.47468 8.43186 9.26058C7.82882 10.0465 7.50195 11.0094 7.50195 12C7.50195 12.9906 7.82882 13.9535 8.43186 14.7394C9.0349 15.5253 9.88042 16.0903 10.8373 16.3467C11.7941 16.6031 12.8088 16.5365 13.724 16.1575C14.6392 15.7784 15.4038 15.1079 15.8991 14.25C15.4329 14.8322 14.7974 15.2553 14.0804 15.4607C13.3634 15.6662 12.6003 15.6439 11.8965 15.3968C11.1928 15.1498 10.5831 14.6903 10.1518 14.0818C9.72048 13.4733 9.48882 12.7459 9.48882 12C9.48882 11.2541 9.72048 10.5267 10.1518 9.9182C10.5831 9.3097 11.1928 8.85019 11.8965 8.60317C12.6003 8.35615 13.3634 8.33382 14.0804 8.53926C14.7974 8.7447 15.4329 9.16777 15.8991 9.75ZM16.0491 12L11.9991 10.68L14.5191 14.13V9.87L11.9991 13.32L16.0491 12Z" fill="#D21034"/>
</g>
<defs>
<clipPath id="clip0_5918_81176">
<rect y="3" width="24" height="18" rx="4" fill="white"/>
</clipPath>
</defs>
</svg>
