<svg width="32" height="32" viewBox="0 0 32 32" fill="none" xmlns="http://www.w3.org/2000/svg">
<path fill-rule="evenodd" clip-rule="evenodd" d="M16 1.66663C11.036 1.66663 7 5.73863 7 10.7613C7 12.4626 7.74933 14.5733 8.84 16.6786C11.2413 21.3146 15.2413 25.984 15.2413 25.984C15.4307 26.2053 15.708 26.3333 16 26.3333C16.292 26.3333 16.5693 26.2053 16.7587 25.984C16.7587 25.984 20.7587 21.3146 23.16 16.6786C24.2507 14.5733 25 12.4626 25 10.7613C25 5.73863 20.964 1.66663 16 1.66663ZM16 6.99996C13.976 6.99996 12.3333 8.64263 12.3333 10.6666C12.3333 12.6906 13.976 14.3333 16 14.3333C18.024 14.3333 19.6667 12.6906 19.6667 10.6666C19.6667 8.64263 18.024 6.99996 16 6.99996Z" fill="white"/>
<path opacity="0.4" fill-rule="evenodd" clip-rule="evenodd" d="M22.3793 23.1693C23.4633 23.4946 24.3567 23.8973 24.974 24.3693C25.374 24.6733 25.6673 24.9706 25.6673 25.3333C25.6673 25.5466 25.546 25.74 25.3753 25.9333C25.0927 26.252 24.6727 26.5386 24.1527 26.8053C22.3153 27.7453 19.3447 28.3333 16.0007 28.3333C12.6567 28.3333 9.68598 27.7453 7.84865 26.8053C7.32865 26.5386 6.90865 26.252 6.62598 25.9333C6.45532 25.74 6.33398 25.5466 6.33398 25.3333C6.33398 24.9706 6.62732 24.6733 7.02732 24.3693C7.64465 23.8973 8.53798 23.4946 9.62198 23.1693C10.15 23.0106 10.45 22.452 10.2913 21.924C10.1327 21.3946 9.57398 21.0946 9.04598 21.2533C7.39532 21.7506 6.11265 22.4319 5.34198 23.1853C4.66465 23.8453 4.33398 24.5839 4.33398 25.3333C4.33398 26.2693 4.86332 27.2026 5.93932 27.9813C7.82732 29.3466 11.6193 30.3333 16.0007 30.3333C20.382 30.3333 24.174 29.3466 26.062 27.9813C27.138 27.2026 27.6673 26.2693 27.6673 25.3333C27.6673 24.5839 27.3367 23.8453 26.6593 23.1853C25.8887 22.4319 24.606 21.7506 22.9553 21.2533C22.4273 21.0946 21.8687 21.3946 21.71 21.924C21.5513 22.452 21.8513 23.0106 22.3793 23.1693Z" fill="white"/>
</svg>
