<svg width="40" height="40" viewBox="0 0 40 40" fill="none" xmlns="http://www.w3.org/2000/svg">
<path opacity="0.4" d="M39.5113 37.1549L29.5631 27.2066C31.9164 24.3333 33.333 20.6633 33.333 16.6667C33.333 7.47681 25.8565 0.000244141 16.6666 0.000244141C7.47664 0.000244141 0 7.47681 0 16.6667C0 25.8566 7.47657 33.3332 16.6665 33.3332C20.6631 33.3332 24.333 31.9166 27.2064 29.5632L37.1546 39.5115C37.4796 39.8365 37.9063 39.9999 38.333 39.9999C38.7597 39.9999 39.1863 39.8365 39.5113 39.5115C40.163 38.8599 40.163 37.8065 39.5113 37.1549ZM16.6665 30C9.31491 30 3.33325 24.0184 3.33325 16.6667C3.33325 9.31507 9.31491 3.33349 16.6665 3.33349C24.018 3.33349 29.9997 9.31515 29.9997 16.6667C29.9997 24.0183 24.0181 30 16.6665 30Z" fill="#388E3C"/>
</svg>
