<svg width="120" height="121" viewBox="0 0 120 121" fill="none" xmlns="http://www.w3.org/2000/svg">
<path d="M116.364 66.8636C118.001 66.8636 118.728 64.8636 117.637 63.7727L107.455 50.1364C107.092 49.7727 106.546 49.4091 106.001 49.4091H91.6371V44.1364H101.273C102.183 44.1364 103.092 43.4091 103.092 42.3182C103.092 41.7727 102.91 41.4091 102.546 41.0455L96.9098 32.3182C100.91 31.2273 104.001 28.3182 104.001 24.8636C104.001 23.9545 103.273 23.0455 102.183 23.0455C101.092 23.0455 100.364 23.7727 100.364 24.8636C100.364 27.2273 97.4552 29.2273 93.8189 29.2273H92.0007C75.6371 23.0455 64.728 13.9545 61.4552 3.77273C61.2734 3.04545 60.5462 2.5 59.8189 2.5C59.0916 2.5 58.3643 3.04545 58.1825 3.77273C54.9098 14.1364 44.0007 23.0455 27.6371 29.2273H25.8189C22.3643 29.2273 19.2734 27.2273 19.2734 24.8636C19.2734 23.9545 18.5462 23.0455 17.4552 23.0455C16.3643 23.0455 15.6371 23.7727 15.6371 24.8636C15.6371 28.3182 18.5462 31.4091 22.728 32.3182L16.9098 41.2273C16.5462 41.7727 16.5462 42.5 16.9098 43.0455C17.2734 43.5909 17.8189 43.9545 18.3643 43.9545H28.0007V49.2273H13.8189C13.2734 49.2273 12.728 49.4091 12.3643 49.9545L2.0007 63.9546C1.09161 65.0455 2.0007 66.6818 3.45525 66.6818H12.5462V107.591H3.81888C2.90979 107.591 2.0007 108.318 2.0007 109.409V116.682C2.0007 117.591 2.72797 118.5 3.81888 118.5H116.001C116.91 118.5 117.819 117.773 117.819 116.682V109.409C117.819 108.5 117.092 107.591 116.001 107.591H107.273V66.8636H116.364ZM60.0007 9.04545C64.0007 16.8636 72.0007 23.9545 83.2734 29.4091H36.728C48.0007 23.9545 56.0007 16.8636 60.0007 9.04545ZM26.9098 32.8636H93.0916L98.1825 40.6818C85.4552 40.6818 31.8189 40.6818 21.8189 40.6818L26.9098 32.8636ZM88.3643 44.1364V49.4091H31.6371V44.1364H88.3643ZM14.728 52.8636H105.273L112.91 63.2273C100.91 63.2273 18.3643 63.2273 7.09161 63.2273L14.728 52.8636ZM16.1825 66.8636H23.0916V107.773H16.1825V66.8636ZM114.364 114.864H5.63707V111.227H114.364V114.864ZM69.2734 87.5909V107.591H61.8189V78.6818C66.0007 79.4091 69.2734 83.2273 69.2734 87.5909ZM58.1825 107.591H50.728V87.5909C50.728 83.0455 54.0007 79.4091 58.1825 78.5V107.591ZM72.728 107.591V87.5909C72.728 80.5 67.0916 74.8636 60.0007 74.8636C52.9098 74.8636 47.2734 80.5 47.2734 87.5909V107.591H26.728V66.8636H93.4552V107.773H72.728V107.591ZM103.819 107.591H96.9098V66.8636H103.819V107.591Z" fill="#6D767E"/>
</svg>
