<svg width="120" height="121" viewBox="0 0 120 121" fill="none" xmlns="http://www.w3.org/2000/svg">
<g clip-path="url(#clip0_5762_71355)">
<path d="M118.359 107.844H111.797V100.004C111.797 99.7889 111.755 99.5755 111.672 99.3764C111.59 99.1773 111.469 98.9964 111.317 98.844C111.164 98.6916 110.983 98.5708 110.784 98.4884C110.585 98.406 110.372 98.3636 110.156 98.3638H100.195V72.3125H102.203C105.682 72.3083 109.018 70.9241 111.479 68.4636C113.939 66.0031 115.323 62.6672 115.328 59.1875C115.328 58.7524 115.155 58.3351 114.847 58.0274C114.539 57.7197 114.122 57.5469 113.687 57.5469C110.013 57.533 106.389 56.6976 103.08 55.1017C99.7704 53.5059 96.8601 51.19 94.5619 48.3238V40.3438H94.6978C98.1776 40.3398 101.514 38.9557 103.974 36.4951C106.435 34.0346 107.819 30.6985 107.823 27.2188C107.823 27.0033 107.781 26.7899 107.698 26.5908C107.616 26.3917 107.495 26.2108 107.343 26.0584C107.19 25.906 107.009 25.7852 106.81 25.7028C106.611 25.6204 106.398 25.578 106.182 25.5781C102.508 25.5644 98.8842 24.7291 95.5751 23.1334C92.2659 21.5377 89.3556 19.222 87.0572 16.3559V2.13781C87.0569 1.92241 87.0143 1.70916 86.9316 1.51026C86.8489 1.31136 86.7278 1.13069 86.5753 0.978598C86.4228 0.826501 86.2417 0.705948 86.0426 0.623829C85.8435 0.54171 85.6301 0.499633 85.4147 0.500002H77.2266C76.845 0.499736 76.4753 0.63254 76.1812 0.875537C75.887 1.11854 75.6868 1.45651 75.615 1.83125L73.0547 15.2956H46.9453L44.385 1.83125C44.3131 1.45659 44.1128 1.11872 43.8187 0.875753C43.5245 0.632785 43.1549 0.499916 42.7734 0.500002H34.5853C34.3698 0.499879 34.1564 0.542231 33.9573 0.624637C33.7582 0.707042 33.5773 0.827885 33.4249 0.980256C33.2726 1.13263 33.1517 1.31354 33.0693 1.51264C32.9869 1.71175 32.9446 1.92514 32.9447 2.14063V16.3559C30.6463 19.222 27.736 21.5377 24.4268 23.1334C21.1177 24.7291 17.4935 25.5644 13.8197 25.5781C13.6042 25.578 13.3908 25.6204 13.1917 25.7028C12.9926 25.7852 12.8117 25.906 12.6593 26.0584C12.5069 26.2108 12.3861 26.3917 12.3037 26.5908C12.2213 26.7899 12.1789 27.0033 12.1791 27.2188C12.1828 30.6986 13.5668 34.0348 16.0274 36.4954C18.488 38.956 21.8242 40.34 25.3041 40.3438H25.44V48.32C23.1417 51.1863 20.2314 53.5021 16.9223 55.098C13.6131 56.6938 9.98886 57.5293 6.315 57.5431C5.87988 57.5431 5.46258 57.716 5.15491 58.0237C4.84723 58.3313 4.67438 58.7486 4.67438 59.1838C4.6786 62.6634 6.06276 65.9994 8.52326 68.4599C10.9838 70.9204 14.3197 72.3045 17.7994 72.3088H19.8066V98.3609H9.84375C9.62827 98.3608 9.41487 98.4032 9.21577 98.4856C9.01666 98.568 8.83575 98.6888 8.68338 98.8412C8.53101 98.9936 8.41017 99.1745 8.32776 99.3736C8.24536 99.5727 8.20301 99.7861 8.20313 100.002V107.844H1.64063C1.20592 107.843 0.788902 108.016 0.481252 108.323C0.173602 108.63 0.000501313 109.047 4.28917e-06 109.482V118.857C-0.000489106 119.072 0.0415896 119.286 0.123829 119.485C0.206069 119.685 0.326853 119.866 0.479261 120.019C0.631668 120.171 0.812703 120.293 1.01199 120.375C1.21128 120.458 1.42491 120.5 1.64063 120.5H118.359C118.575 120.5 118.788 120.458 118.987 120.375C119.186 120.293 119.367 120.172 119.52 120.02C119.672 119.867 119.793 119.686 119.875 119.487C119.958 119.288 120 119.075 120 118.859V109.484C120 109.269 119.958 109.055 119.875 108.856C119.793 108.657 119.672 108.476 119.52 108.324C119.367 108.172 119.186 108.051 118.987 107.968C118.788 107.886 118.575 107.844 118.359 107.844ZM78.5841 3.78125H83.7741V15.2956H76.3941L78.5841 3.78125ZM36.2259 3.78125H41.4159L43.6059 15.2984H36.2259V3.78125ZM15.5869 28.8022C19.4105 28.5444 23.1405 27.5037 26.5453 25.7447C29.9502 23.9858 32.9573 21.5461 35.3803 18.5769H84.6197C87.0426 21.5462 90.0497 23.9859 93.4546 25.7449C96.8595 27.5039 100.589 28.5445 104.413 28.8022C104.034 31.1068 102.85 33.2022 101.07 34.715C99.2911 36.2277 97.0324 37.0596 94.6969 37.0625H25.3031C22.9675 37.0598 20.7088 36.228 18.9293 34.7152C17.1499 33.2024 15.9654 31.1069 15.5869 28.8022ZM91.2797 40.3438V47.2606H28.7203V40.3438H91.2797ZM8.08125 60.7662C11.9049 60.5088 15.6349 59.4684 19.0398 57.7096C22.4447 55.9508 25.4518 53.5111 27.8747 50.5419H92.1253C94.5482 53.5111 97.5554 55.9508 100.96 57.7096C104.365 59.4684 108.095 60.5088 111.919 60.7662C111.541 63.0716 110.357 65.1678 108.577 66.6815C106.798 68.1951 104.539 69.0278 102.203 69.0312H17.7975C15.4613 69.028 13.2022 68.1954 11.4227 66.6817C9.64328 65.168 8.4591 63.0717 8.08125 60.7662ZM23.0859 72.3125H96.9141V98.3647H92.2266V86.75C92.2246 85.0723 91.5572 83.4639 90.3709 82.2775C89.1846 81.0912 87.5762 80.4239 85.8984 80.4219H81.4453C79.7676 80.4239 78.1592 81.0912 76.9729 82.2775C75.7865 83.4639 75.1192 85.0723 75.1172 86.75V98.3609H68.5547V86.75C68.5527 85.0723 67.8854 83.4639 66.699 82.2775C65.5127 81.0912 63.9043 80.4239 62.2266 80.4219H57.7734C56.0957 80.4239 54.4873 81.0912 53.301 82.2775C52.1146 83.4639 51.4473 85.0723 51.4453 86.75V98.3609H44.8828V86.75C44.8808 85.0723 44.2135 83.4639 43.0272 82.2775C41.8408 81.0912 40.2324 80.4239 38.5547 80.4219H34.1016C32.4239 80.4239 30.8154 81.0912 29.6291 82.2775C28.4428 83.4639 27.7754 85.0723 27.7734 86.75V98.3609H23.0859V72.3125ZM88.9453 98.3647H78.3984V86.75C78.3994 85.9422 78.7208 85.1678 79.2919 84.5966C79.8631 84.0254 80.6375 83.7041 81.4453 83.7031H85.8984C86.7062 83.7041 87.4806 84.0254 88.0518 84.5966C88.623 85.1678 88.9443 85.9422 88.9453 86.75V98.3647ZM65.2734 98.3647H54.7266V86.75C54.7276 85.9422 55.0489 85.1678 55.6201 84.5966C56.1913 84.0254 56.9657 83.7041 57.7734 83.7031H62.2266C63.0343 83.7041 63.8088 84.0254 64.3799 84.5966C64.9511 85.1678 65.2725 85.9422 65.2734 86.75V98.3647ZM41.6016 98.3647H31.0547V86.75C31.0557 85.9422 31.377 85.1678 31.9482 84.5966C32.5194 84.0254 33.2938 83.7041 34.1016 83.7031H38.5547C39.3625 83.7041 40.1369 84.0254 40.7081 84.5966C41.2792 85.1678 41.6006 85.9422 41.6016 86.75V98.3647ZM11.4844 101.646H108.516V107.74H11.4844V101.646ZM116.719 117.219H3.28125V111.125H116.719V117.219Z" fill="#6D767E"/>
</g>
<defs>
<clipPath id="clip0_5762_71355">
<rect width="120" height="120" fill="white" transform="translate(0 0.5)"/>
</clipPath>
</defs>
</svg>
