<svg width="120" height="121" viewBox="0 0 120 121" fill="none" xmlns="http://www.w3.org/2000/svg">
<g clip-path="url(#clip0_5762_71374)">
<path d="M95.767 117.966H88.9741L80.4184 26.6504C80.4184 26.6504 80.4184 26.6504 80.4184 26.6497C80.1716 24.0284 77.9247 22.0827 75.4019 22.0827H75.2664V18.3118C75.2664 16.5788 73.8562 15.1686 72.1225 15.1686H70.6061V1.78462C70.6061 1.09462 70.0473 0.5354 69.3569 0.5354C68.6664 0.5354 68.1077 1.09485 68.1077 1.78462V15.1684H51.8111V6.20399C51.8111 5.51399 51.2523 4.95478 50.5619 4.95478C49.8714 4.95478 49.3127 5.51423 49.3127 6.20399V15.1684H47.7962C46.0626 15.1684 44.6523 16.5786 44.6523 18.3116V22.0824H44.5169C42.0374 22.0824 39.7509 23.9884 39.5003 26.6499L30.9447 117.965H24.2336C23.5431 117.965 22.9844 118.525 22.9844 119.215C22.9844 119.904 23.5431 120.464 24.2336 120.464H95.7672C96.4576 120.464 97.0164 119.904 97.0164 119.215C97.0164 118.525 96.4574 117.966 95.767 117.966ZM41.9889 26.8841C42.0327 26.4167 42.2031 25.9934 42.4584 25.6379L57.4293 34.7038L40.2948 44.9626L41.9889 26.8841ZM74.3359 24.5813L59.8544 33.2518L45.5362 24.5813C44.6481 24.5816 58.2934 24.5827 74.3359 24.5813ZM77.9296 26.8841V26.8834L79.6497 45.2387L62.2724 34.716L77.4534 25.6269C77.7128 25.9843 77.8853 26.412 77.9296 26.8841ZM84.5144 97.1535L86.3884 117.153L63.0998 106.734L84.5144 97.1535ZM60.0416 105.366L37.285 95.1849L59.9294 84.1131L82.6513 95.2506L60.0416 105.366ZM62.7716 82.7232L82.2688 73.1902L84.1438 93.1993L62.7716 82.7232ZM59.9308 81.3306L39.3213 71.2283L60.1047 60.1801L80.6095 71.2196L59.9308 81.3306ZM62.7557 58.771L80.0559 49.5744L81.8826 69.0685L62.7557 58.771ZM60.1112 57.3472L41.347 47.2447L59.8473 36.1681L78.5957 47.5213L60.1112 57.3472ZM39.8887 49.2964L57.46 58.7565L38.0348 69.0828L39.8887 49.2964ZM37.6495 73.1921L57.0883 82.7204L35.7803 93.1388L37.6495 73.1921ZM35.4109 97.0827L56.9835 106.734L33.5228 117.23L35.4109 97.0827ZM60.0416 108.102L82.0888 117.966H37.9945L60.0416 108.102ZM47.1508 18.3118C47.1508 17.9563 47.44 17.667 47.7962 17.667H72.1227C72.479 17.667 72.7682 17.9563 72.7682 18.3118V22.0827H47.151V18.3118H47.1508Z" fill="#6D767E"/>
</g>
<defs>
<clipPath id="clip0_5762_71374">
<rect width="120" height="120" fill="white" transform="translate(0 0.5)"/>
</clipPath>
</defs>
</svg>
