<svg width="35" height="35" viewBox="0 0 35 35" fill="none" xmlns="http://www.w3.org/2000/svg">
<path d="M31.1712 21.75C29.6091 21.75 28.3382 23.0208 28.3382 24.5826C28.3382 25.0841 28.4806 25.5474 28.7101 25.9575L26.3086 28.9622C26.0514 28.8857 25.7858 28.8326 25.5052 28.8326C24.7912 28.8326 24.1472 29.1067 23.6478 29.5445L19.8159 27.6405C19.8223 27.5661 19.8393 27.4939 19.8393 27.4174C19.8393 25.8555 18.5684 24.5847 17.0063 24.5847C15.4443 24.5847 14.1734 25.8555 14.1734 27.4174C14.1691 28.9792 15.44 30.25 17.0021 30.25C17.7162 30.25 18.3601 29.9759 18.8596 29.5381L22.6914 31.4421C22.685 31.5165 22.668 31.5888 22.668 31.6653C22.6702 33.2293 23.9411 34.5 25.5031 34.5C27.0652 34.5 28.3361 33.2292 28.3361 31.6674C28.3361 31.1659 28.1937 30.7026 27.9642 30.2925L30.3657 27.2878C30.6229 27.3643 30.8885 27.4174 31.1691 27.4174C32.7311 27.4174 34.002 26.1466 34.002 24.5847C34.002 23.0229 32.7333 21.75 31.1712 21.75Z" fill="white" fill-opacity="0.8"/>
<path d="M26.9207 0.5H4.25052C1.90211 0.5 0 2.40188 0 4.75C0 7.09812 1.90211 9 4.25052 9H26.9207C29.2691 9 31.1712 7.09812 31.1712 4.75C31.1712 2.40188 29.267 0.5 26.9207 0.5ZM4.25052 6.16737C3.46843 6.16737 2.83297 5.532 2.83297 4.75C2.83297 3.968 3.46843 3.33263 4.25052 3.33263C5.03262 3.33263 5.66807 3.96587 5.66807 4.75C5.66807 5.532 5.03262 6.16737 4.25052 6.16737ZM9.9186 6.16737C9.13438 6.16737 8.50105 5.532 8.50105 4.75C8.50105 3.968 9.13438 3.33263 9.9186 3.33263C10.7007 3.33263 11.3361 3.96587 11.3361 4.75C11.334 5.532 10.7007 6.16737 9.9186 6.16737Z" fill="white"/>
<path d="M9.9186 28.8326C9.13863 28.8326 8.50105 28.1951 8.50105 27.4152C8.50105 26.6375 9.13863 26 9.9186 26C10.6986 26 11.3361 26.6375 11.3361 27.4174C11.3361 25.7174 12.0864 24.2022 13.2638 23.1674H4.25052C1.89786 23.1674 0 25.065 0 27.4174C0 29.7697 1.89786 31.6674 4.25052 31.6674H13.2616C12.0864 30.6325 11.3361 29.1174 11.3361 27.4174C11.3361 28.1951 10.6964 28.8326 9.9186 28.8326ZM4.25052 28.8326C3.47055 28.8326 2.83297 28.1951 2.83297 27.4152C2.83297 26.6375 3.47055 26 4.25052 26C5.0305 26 5.66807 26.6375 5.66807 27.4174C5.66807 28.1951 5.0305 28.8326 4.25052 28.8326Z" fill="white"/>
<path d="M26.9207 11.8326H4.25052C1.89786 11.8326 0 13.7303 0 16.0826C0 18.435 1.89786 20.3326 4.25052 20.3326H26.9207C27.1056 20.3326 27.2884 20.3178 27.4733 20.2901C28.4509 20.1775 29.301 19.7228 29.9386 19.0576C29.9386 19.0576 29.9386 19.0576 29.9534 19.0428C30.7037 18.2778 31.1712 17.2429 31.1712 16.0826C31.1712 13.7324 29.2712 11.8326 26.9207 11.8326ZM4.25052 17.5C3.47055 17.5 2.83297 16.8625 2.83297 16.0826C2.83297 15.3028 3.47055 14.6653 4.25052 14.6653C5.0305 14.6653 5.66807 15.3028 5.66807 16.0826C5.66807 16.8625 5.0305 17.5 4.25052 17.5ZM9.9186 17.5C9.13863 17.5 8.50105 16.8625 8.50105 16.0826C8.50105 15.3028 9.13863 14.6653 9.9186 14.6653C10.6986 14.6653 11.3361 15.3028 11.3361 16.0826C11.3361 16.8625 10.6964 17.5 9.9186 17.5Z" fill="white"/>
</svg>
