<svg width="32" height="32" viewBox="0 0 32 32" fill="none" xmlns="http://www.w3.org/2000/svg">
<path d="M28.76 10.0627L27 8.85068V15.356L28.3333 14.4227L30.3333 13.0213C30.3353 12.6543 30.2767 12.2894 30.16 11.9413C29.9027 11.1834 29.4128 10.5259 28.76 10.0627Z" fill="white"/>
<path d="M18.0927 24.0227C17.4808 24.4564 16.7493 24.6893 15.9993 24.6893C15.2494 24.6893 14.5179 24.4564 13.906 24.0227L3.66602 16.9173L1.66602 15.5293V26.9173C1.66584 27.3989 1.76056 27.8758 1.94477 28.3207C2.12897 28.7657 2.39905 29.1699 2.73957 29.5105C3.08008 29.851 3.48436 30.1211 3.9293 30.3053C4.37424 30.4895 4.85112 30.5842 5.33268 30.584H26.666C27.1476 30.5842 27.6245 30.4895 28.0694 30.3053C28.5143 30.1211 28.9186 29.851 29.2591 29.5105C29.5996 29.1699 29.8697 28.7657 30.0539 28.3207C30.2381 27.8758 30.3329 27.3989 30.3327 26.9173V15.4667L28.3327 16.8667L18.0927 24.0227Z" fill="white"/>
<path d="M1.85273 11.9174C1.72717 12.2907 1.6641 12.6822 1.66606 13.076L3.66606 14.4627L4.99939 15.396V8.85071L3.22606 10.076C2.58485 10.5289 2.10397 11.1737 1.85273 11.9174Z" fill="white"/>
<path d="M18.3591 5.30264H21.8791L18.0925 2.68931C17.4802 2.25654 16.7489 2.02417 15.9991 2.02417C15.2494 2.02417 14.5181 2.25654 13.9058 2.68931L10.1191 5.30264H18.3591Z" fill="white"/>
<path opacity="0.4" d="M7 8.96934V16.7827L15.0533 22.3827C15.3304 22.5778 15.6611 22.6826 16 22.6826C16.3389 22.6826 16.6696 22.5778 16.9467 22.3827L25 16.7573V8.96934C25 8.52731 24.8244 8.10339 24.5118 7.79083C24.1993 7.47827 23.7754 7.30267 23.3333 7.30267H10.5067C10.4452 7.31602 10.3815 7.31602 10.32 7.30267H8.66667C8.22464 7.30267 7.80072 7.47827 7.48816 7.79083C7.17559 8.10339 7 8.52731 7 8.96934ZM18 19.9693H14C13.7348 19.9693 13.4804 19.864 13.2929 19.6764C13.1054 19.4889 13 19.2346 13 18.9693C13 18.7041 13.1054 18.4498 13.2929 18.2622C13.4804 18.0747 13.7348 17.9693 14 17.9693H18C18.2652 17.9693 18.5196 18.0747 18.7071 18.2622C18.8946 18.4498 19 18.7041 19 18.9693C19 19.2346 18.8946 19.4889 18.7071 19.6764C18.5196 19.864 18.2652 19.9693 18 19.9693ZM10 9.96934H22C22.2652 9.96934 22.5196 10.0747 22.7071 10.2622C22.8946 10.4498 23 10.7041 23 10.9693C23 11.2346 22.8946 11.4889 22.7071 11.6764C22.5196 11.864 22.2652 11.9693 22 11.9693H10C9.73478 11.9693 9.48043 11.864 9.29289 11.6764C9.10536 11.4889 9 11.2346 9 10.9693C9 10.7041 9.10536 10.4498 9.29289 10.2622C9.48043 10.0747 9.73478 9.96934 10 9.96934ZM10 13.9693H22C22.2652 13.9693 22.5196 14.0747 22.7071 14.2622C22.8946 14.4498 23 14.7041 23 14.9693C23 15.2346 22.8946 15.4889 22.7071 15.6764C22.5196 15.864 22.2652 15.9693 22 15.9693H10C9.73478 15.9693 9.48043 15.864 9.29289 15.6764C9.10536 15.4889 9 15.2346 9 14.9693C9 14.7041 9.10536 14.4498 9.29289 14.2622C9.48043 14.0747 9.73478 13.9693 10 13.9693Z" fill="white"/>
</svg>
