<svg width="29" height="40" viewBox="0 0 29 40" fill="none" xmlns="http://www.w3.org/2000/svg">
<path d="M18.7889 37.3916C22.8607 30.1631 21.1559 21.0664 14.7352 15.7631C14.7314 15.7601 14.7277 15.7564 14.7247 15.7541L14.7524 15.8231L14.7479 15.8749C15.9989 19.1794 15.8234 22.8071 14.2867 25.9196L13.2037 28.1141L12.8714 25.6894C12.6457 24.0446 12.0254 22.4756 11.0699 21.1324H10.9192L10.8397 20.9074C10.8509 23.4206 10.3214 25.8964 9.28268 28.2319C7.91993 31.2881 8.12018 34.8124 9.81893 37.6609L10.9912 39.6274L8.88218 38.7364C5.40443 37.2671 2.62418 34.4366 1.25393 30.9709C-0.281322 27.1009 0.00292844 22.6136 2.01518 18.9701C3.06443 17.0749 3.79943 15.0626 4.20068 12.9881L4.59293 10.9549L5.59343 12.7684C6.07118 13.6331 6.42293 14.5691 6.64118 15.5524L6.66368 15.5756L6.68693 15.7331L6.70868 15.7264C9.70568 11.7446 11.5012 6.79013 11.7629 1.77338L11.8304 0.473633L12.9209 1.18463C17.3714 4.08488 20.4622 8.73788 21.4169 13.9661L21.4387 14.0734L21.4499 14.0899L21.4987 14.0209C22.3709 12.8689 22.8314 11.4986 22.8314 10.0564V7.82288L24.1792 9.60338C27.3127 13.7419 28.9192 18.8756 28.7032 24.0596C28.4377 30.1616 25.1099 35.5174 19.8007 38.4191L17.5019 39.6754L18.7889 37.3916Z" fill="white"/>
</svg>
