<svg width="40" height="40" viewBox="0 0 40 40" fill="none" xmlns="http://www.w3.org/2000/svg">
<g clip-path="url(#clip0_5353_41422)">
<path opacity="0.4" d="M20.6484 1.10272C20.4067 0.860191 20 1.03432 20 1.37666V11.1235C20 11.3406 20.177 11.5162 20.394 11.5121C22.4339 11.4739 24.4417 11.2761 26.426 10.9709C26.6674 10.9337 26.814 10.6851 26.7272 10.4568C25.4021 6.96659 23.3273 3.79182 20.6484 1.10272Z" fill="#388E3C"/>
<path opacity="0.4" d="M24.3082 0.231327C23.9439 0.146181 23.7007 0.580531 23.9444 0.864327C26.2988 3.60634 28.1232 6.73732 29.3247 10.1119C29.3916 10.2996 29.5875 10.4096 29.7815 10.3642C31.8302 9.88498 33.8344 9.24219 35.7992 8.47022C36.0338 8.37807 36.1182 8.09023 35.9677 7.88812C33.1484 4.10276 29.046 1.33887 24.3082 0.231327Z" fill="#388E3C"/>
<path opacity="0.4" d="M20.394 28.4854C20.177 28.4813 20 28.6569 20 28.874V38.6228C20 38.9652 20.4069 39.1393 20.6485 38.8966C23.3275 36.2058 25.4023 33.0327 26.7274 29.5406C26.814 29.3122 26.6675 29.0637 26.4261 29.0265C24.4436 28.7213 22.434 28.5236 20.394 28.4854Z" fill="#388E3C"/>
<path opacity="0.4" d="M37.7867 10.797C37.6953 10.6178 37.4809 10.5415 37.2945 10.6172C35.0872 11.5144 32.8287 12.2469 30.5211 12.7925C30.3081 12.8429 30.1763 13.057 30.2265 13.27C30.7408 15.4542 31.0327 17.7059 31.0327 20C31.0327 22.2941 30.7431 24.5436 30.229 26.7275C30.1788 26.9405 30.3106 27.1546 30.5236 27.205C32.8311 27.7505 35.0893 28.483 37.2965 29.3822C37.4831 29.4582 37.6978 29.3817 37.7892 29.2022C39.1977 26.4365 40.0002 23.311 40.0002 20C40.0002 16.6887 39.1976 13.5608 37.7867 10.797Z" fill="#388E3C"/>
<path opacity="0.4" d="M27.7167 13.6996C27.6689 13.5018 27.4755 13.3764 27.2747 13.4092C25.0124 13.7788 22.7191 14.0129 20.3876 14.0527C20.1731 14.0563 20 14.2305 20 14.4451V25.5524C20 25.7669 20.1731 25.9411 20.3876 25.9448C22.7191 25.9846 25.0124 26.2187 27.2747 26.5883C27.4755 26.6211 27.6689 26.4956 27.7167 26.2978C28.2106 24.2546 28.4925 22.1497 28.4925 20C28.4925 17.8503 28.2106 15.7431 27.7167 13.6996Z" fill="#388E3C"/>
<path opacity="0.4" d="M29.7833 29.6353C29.5894 29.5901 29.3938 29.7001 29.327 29.8875C28.1233 33.2626 26.2983 36.3922 23.9433 39.136C23.6998 39.4198 23.943 39.854 24.3072 39.7688C29.0453 38.6614 33.1481 35.8975 35.9697 32.1119C36.1203 31.9098 36.0359 31.6219 35.8013 31.5297C33.8363 30.7574 31.8321 30.1128 29.7833 29.6353Z" fill="#388E3C"/>
<path d="M17.1729 14.4541C17.3686 14.3565 17.5 14.1607 17.5 13.942V5.36484C17.5 5.28901 17.4316 5.23014 17.3565 5.24017C17.3058 5.24694 17.2555 5.22319 17.2299 5.17894L14.955 1.24749C14.61 0.649991 13.845 0.447491 13.25 0.792491L6.75 4.54249C6.4625 4.70749 6.2525 4.98249 6.1675 5.29999C6.0825 5.62249 6.1275 5.96249 6.2925 6.24999L8.41307 9.91862C8.5295 10.12 8.50495 10.3724 8.3578 10.5526C7.35877 11.776 6.55849 13.1585 5.99346 14.6367C5.91064 14.8533 5.70486 15 5.47292 15H1.25C0.56 15 0 15.56 0 16.25V23.75C0 24.44 0.56 25 1.25 25H5.47274C5.70477 25 5.91061 25.1468 5.99336 25.3636C6.5583 26.8434 7.35846 28.2258 8.35733 29.4473C8.50472 29.6275 8.5294 29.8801 8.41289 30.0817L6.2925 33.75C6.1275 34.035 6.0825 34.3775 6.1675 34.6975C6.2525 35.02 6.4625 35.2925 6.75 35.4575L13.25 39.2075C13.4475 39.3225 13.6625 39.375 13.875 39.375C14.3075 39.375 14.7275 39.15 14.9575 38.75L17.2326 34.8183C17.2579 34.7745 17.3075 34.7517 17.3575 34.7586C17.4309 34.7687 17.5 34.7109 17.5 34.6369V26.0576C17.5 25.8391 17.3688 25.6435 17.1733 25.5457C15.1208 24.5192 13.75 22.4188 13.75 20C13.75 17.579 15.1206 15.4786 17.1729 14.4541Z" fill="#388E3C"/>
</g>
<defs>
<clipPath id="clip0_5353_41422">
<rect width="40" height="40" fill="white"/>
</clipPath>
</defs>
</svg>
