<svg width="118" height="121" viewBox="0 0 118 121" fill="none" xmlns="http://www.w3.org/2000/svg">
<path d="M61 2.25781C61 1.15324 60.1046 0.257812 59 0.257812C57.8954 0.257812 57 1.15324 57 2.25781H61ZM57 2.25781V13.2734H61V2.25781H57Z" fill="#6D767E"/>
<path d="M22.8148 32.6522C21.8676 33.2205 21.5605 34.449 22.1288 35.3962C22.6971 36.3433 23.9256 36.6505 24.8727 36.0822L22.8148 32.6522ZM57.971 13.8908L56.942 12.1758L57.971 13.8908ZM60.029 13.8908L61.058 12.1758L60.029 13.8908ZM24.8727 36.0822L59 15.6058L56.942 12.1758L22.8148 32.6522L24.8727 36.0822ZM59 15.6058L93.1273 36.0822L95.1852 32.6522L61.058 12.1758L59 15.6058ZM59 15.6058V15.6058L61.058 12.1758C59.7913 11.4158 58.2087 11.4158 56.942 12.1758L59 15.6058Z" fill="#6D767E"/>
<path d="M4.51562 27.3359C4.51562 26.2314 3.62019 25.3359 2.51562 25.3359C1.41106 25.3359 0.515625 26.2314 0.515625 27.3359H4.51562ZM113.484 27.3359V34.3672H117.484V27.3359H113.484ZM113.484 34.3672C113.484 41.0291 108.084 46.4297 101.422 46.4297V50.4297C110.293 50.4297 117.484 43.2382 117.484 34.3672H113.484ZM101.422 46.4297H16.5781V50.4297H101.422V46.4297ZM16.5781 46.4297C9.91621 46.4297 4.51562 41.0291 4.51562 34.3672H0.515625C0.515625 43.2382 7.70707 50.4297 16.5781 50.4297V46.4297ZM4.51562 34.3672V27.3359H0.515625V34.3672H4.51562Z" fill="#6D767E"/>
<path d="M25.8438 48.4297C25.8438 47.3251 24.9483 46.4297 23.8438 46.4297C22.7392 46.4297 21.8438 47.3251 21.8438 48.4297H25.8438ZM21.8438 48.4297V90.6172H25.8438V48.4297H21.8438Z" fill="#6D767E"/>
<path d="M96.1562 48.4297C96.1562 47.3251 95.2608 46.4297 94.1562 46.4297C93.0517 46.4297 92.1562 47.3251 92.1562 48.4297H96.1562ZM92.1562 48.4297V90.6172H96.1562V48.4297H92.1562Z" fill="#6D767E"/>
<path d="M13.2969 88.6172C12.1923 88.6172 11.2969 89.5126 11.2969 90.6172C11.2969 91.7218 12.1923 92.6172 13.2969 92.6172V88.6172ZM104.703 88.6172H13.2969V92.6172H104.703V88.6172Z" fill="#6D767E"/>
<path d="M53.9688 90.6172C53.9688 89.5126 53.0733 88.6172 51.9688 88.6172C50.8642 88.6172 49.9688 89.5126 49.9688 90.6172H53.9688ZM64.0312 90.6172V116.742H68.0312V90.6172H64.0312ZM64.0312 116.742H53.9688V120.742H64.0312V116.742ZM53.9688 116.742V90.6172H49.9688V116.742H53.9688ZM53.9688 116.742H49.9688C49.9688 118.951 51.7596 120.742 53.9688 120.742V116.742ZM64.0312 116.742V120.742C66.2404 120.742 68.0312 118.951 68.0312 116.742H64.0312Z" fill="#6D767E"/>
<path d="M32.2892 89.203C31.5082 88.4219 30.2418 88.4219 29.4608 89.203C28.6797 89.984 28.6797 91.2504 29.4608 92.0314L32.2892 89.203ZM29.4608 92.0314L50.5545 113.125L53.383 110.297L32.2892 89.203L29.4608 92.0314Z" fill="#6D767E"/>
<path d="M64.617 110.297C63.836 111.078 63.836 112.344 64.617 113.125C65.3981 113.906 66.6644 113.906 67.4455 113.125L64.617 110.297ZM85.7108 89.203L64.617 110.297L67.4455 113.125L88.5392 92.0314L85.7108 89.203Z" fill="#6D767E"/>
<path d="M13.2969 67.5234C12.1923 67.5234 11.2969 68.4189 11.2969 69.5234C11.2969 70.628 12.1923 71.5234 13.2969 71.5234V67.5234ZM13.2969 71.5234H44.9375V67.5234H13.2969V71.5234Z" fill="#6D767E"/>
<path d="M73.0625 67.5234C71.9579 67.5234 71.0625 68.4189 71.0625 69.5234C71.0625 70.628 71.9579 71.5234 73.0625 71.5234V67.5234ZM73.0625 71.5234H104.703V67.5234H73.0625V71.5234Z" fill="#6D767E"/>
<path d="M42.9375 90.6172C42.9375 91.7218 43.8329 92.6172 44.9375 92.6172C46.0421 92.6172 46.9375 91.7218 46.9375 90.6172H42.9375ZM46.9375 90.6172V64.4922H42.9375V90.6172H46.9375ZM46.9375 64.4922H71.0625V60.4922H46.9375V64.4922ZM71.0625 64.4922V90.6172H75.0625V64.4922H71.0625ZM71.0625 64.4922H75.0625C75.0625 62.283 73.2716 60.4922 71.0625 60.4922V64.4922ZM46.9375 64.4922V64.4922V60.4922C44.7284 60.4922 42.9375 62.283 42.9375 64.4922H46.9375Z" fill="#6D767E"/>
<path d="M13.0625 22.3047C14.1671 22.3047 15.0625 21.4093 15.0625 20.3047C15.0625 19.2001 14.1671 18.3047 13.0625 18.3047V22.3047ZM104.938 22.3047H108.453V18.3047H104.938V22.3047ZM108.453 22.3047C111.232 22.3047 113.484 24.5571 113.484 27.3359H117.484C117.484 22.348 113.441 18.3047 108.453 18.3047V22.3047ZM113.484 27.3359C113.484 30.1147 111.232 32.3672 108.453 32.3672V36.3672C113.441 36.3672 117.484 32.3239 117.484 27.3359H113.484ZM108.453 32.3672H9.54688V36.3672H108.453V32.3672ZM9.54688 32.3672C6.76809 32.3672 4.51562 30.1147 4.51562 27.3359H0.515625C0.515625 32.3239 4.55895 36.3672 9.54688 36.3672V32.3672ZM4.51562 27.3359C4.51562 24.5571 6.76809 22.3047 9.54688 22.3047V18.3047C4.55895 18.3047 0.515625 22.348 0.515625 27.3359H4.51562ZM9.54688 22.3047H13.0625V18.3047H9.54688V22.3047Z" fill="#6D767E"/>
</svg>
