<svg width="24" height="24" viewBox="0 0 24 24" fill="none" xmlns="http://www.w3.org/2000/svg">
<path d="M2.49982 12.2H2.4999L2.49973 12.1908C2.45218 9.61339 3.41173 7.18337 5.19663 5.36025C6.98154 3.54711 9.37251 2.54999 11.9498 2.54999C17.2137 2.54999 21.4998 6.83613 21.4998 12.1V17.8C21.4998 17.9338 21.3837 18.05 21.2498 18.05C21.116 18.05 20.9998 17.9338 20.9998 17.8V12.1C20.9998 7.11423 16.9463 3.04999 11.9498 3.04999C9.50809 3.04999 7.23876 3.99216 5.553 5.70973C3.85775 7.43677 2.95871 9.73537 2.99982 12.1842V17.89C2.99982 18.0425 2.88506 18.15 2.74982 18.15C2.61596 18.15 2.49982 18.0338 2.49982 17.9V12.2Z" fill="#50AE35" stroke="#50AE35"/>
<path d="M5.94 12.45H5.81C3.71 12.45 2 14.16 2 16.26V18.14C2 20.24 3.71 21.95 5.81 21.95H5.94C8.04 21.95 9.75 20.24 9.75 18.14V16.26C9.75 14.16 8.04 12.45 5.94 12.45Z" fill="#50AE35"/>
<path d="M18.19 12.45H18.06C15.96 12.45 14.25 14.16 14.25 16.26V18.14C14.25 20.24 15.96 21.95 18.06 21.95H18.19C20.29 21.95 22 20.24 22 18.14V16.26C22 14.16 20.29 12.45 18.19 12.45Z" fill="#50AE35"/>
</svg>
