<svg width="20" height="20" viewBox="0 0 20 20" fill="none" xmlns="http://www.w3.org/2000/svg">
<path fill-rule="evenodd" clip-rule="evenodd" d="M4.8226 2.22475C4.8226 3.46147 3.89169 4.45104 2.39696 4.45104H2.36956C0.930396 4.45104 0 3.46147 0 2.22475C0 0.961879 0.958732 0 2.42521 0C3.89169 0 4.79477 0.961879 4.8226 2.22475ZM4.54068 6.20898V19.089H0.253906V6.20898H4.54068ZM20.0008 19.0887L20.001 11.7037C20.001 7.74752 17.8862 5.90625 15.0653 5.90625C12.7893 5.90625 11.7703 7.15639 11.2013 8.03338V6.20904H6.91406C6.97056 7.41763 6.91406 19.089 6.91406 19.089H11.2013V11.8958C11.2013 11.5108 11.2292 11.1268 11.3425 10.8512C11.6523 10.0822 12.3578 9.28599 13.5421 9.28599C15.0939 9.28599 15.7142 10.4671 15.7142 12.1979V19.0887H20.0008Z" fill="#A7ADB2"/>
</svg>
