<svg width="120" height="121" viewBox="0 0 120 121" fill="none" xmlns="http://www.w3.org/2000/svg">
<g clip-path="url(#clip0_5762_71247)">
<path d="M46.8749 39.875H24.3748C23.3399 39.875 22.5 40.7149 22.5 41.7498V118.625C22.5 119.66 23.3399 120.5 24.3748 120.5H46.8749C47.9098 120.5 48.7497 119.66 48.7497 118.625V41.7498C48.7502 40.7149 47.9098 39.875 46.8749 39.875ZM45 116.75H26.2502V43.6252H45V116.75Z" fill="#6D767E"/>
<path d="M106.875 116.75H13.1248C12.0899 116.75 11.25 117.59 11.25 118.625C11.25 119.66 12.0899 120.5 13.1248 120.5H106.875C107.91 120.5 108.75 119.66 108.75 118.625C108.75 117.59 107.91 116.75 106.875 116.75Z" fill="#6D767E"/>
<path d="M43.125 26.7502H28.1248C27.0899 26.7502 26.25 27.5902 26.25 28.6251V41.7499C26.25 42.7848 27.0899 43.6247 28.1248 43.6247H43.125C44.1599 43.6247 44.9998 42.7848 44.9998 41.7499V28.6251C44.9998 27.5902 44.1599 26.7502 43.125 26.7502ZM41.2497 39.8751H29.9996V30.4999H41.2497V39.8751Z" fill="#6D767E"/>
<path d="M42.75 20.001L37.125 12.5012C36.4164 11.5569 34.8338 11.5569 34.1252 12.5012L28.5002 20.001C28.2563 20.3251 28.125 20.7201 28.125 21.126V28.6258C28.125 29.6607 28.9649 30.5007 29.9998 30.5007H41.2498C42.2848 30.5007 43.1247 29.6607 43.1247 28.6258V21.126C43.1252 20.7206 42.9939 20.3251 42.75 20.001ZM39.375 26.751H31.8752V21.7511L35.6254 16.7512L39.3756 21.7511L39.375 26.751Z" fill="#6D767E"/>
<path d="M35.6248 0.5C34.5899 0.5 33.75 1.33991 33.75 2.37482V13.6248C33.75 14.6597 34.5899 15.4997 35.6248 15.4997C36.6597 15.4997 37.4996 14.6597 37.4996 13.6248V2.37482C37.5002 1.33991 36.6597 0.5 35.6248 0.5Z" fill="#6D767E"/>
<path d="M41.25 47.3749H30V51.1251H41.25V47.3749Z" fill="#6D767E"/>
<path d="M41.25 54.875H30V58.6252H41.25V54.875Z" fill="#6D767E"/>
<path d="M41.25 62.3751H30V66.1253H41.25V62.3751Z" fill="#6D767E"/>
<path d="M41.25 69.8749H30V73.6251H41.25V69.8749Z" fill="#6D767E"/>
<path d="M41.25 77.375H30V81.1252H41.25V77.375Z" fill="#6D767E"/>
<path d="M41.25 84.8751H30V88.6253H41.25V84.8751Z" fill="#6D767E"/>
<path d="M41.25 92.375H30V96.1252H41.25V92.375Z" fill="#6D767E"/>
<path d="M41.25 99.875H30V103.625H41.25V99.875Z" fill="#6D767E"/>
<path d="M95.6249 39.875H73.1248C72.0899 39.875 71.25 40.7149 71.25 41.7498V118.625C71.25 119.66 72.0899 120.5 73.1248 120.5H95.6249C96.6598 120.5 97.4997 119.66 97.4997 118.625V41.7498C97.4997 40.7149 96.6598 39.875 95.6249 39.875ZM93.75 116.75H75.0002V43.6252H93.75V116.75Z" fill="#6D767E"/>
<path d="M91.875 26.7502H76.8748C75.8399 26.7502 75 27.5902 75 28.6251V41.7499C75 42.7848 75.8399 43.6247 76.8748 43.6247H91.875C92.9099 43.6247 93.7498 42.7848 93.7498 41.7499V28.6251C93.7504 27.5902 92.9099 26.7502 91.875 26.7502ZM90.0002 39.8751H78.7502V30.4999H90.0002V39.8751Z" fill="#6D767E"/>
<path d="M91.5 20.001L85.875 12.5012C85.1664 11.5569 83.5838 11.5569 82.8752 12.5012L77.2502 20.001C77.0063 20.3251 76.875 20.7201 76.875 21.126V28.6258C76.875 29.6607 77.7149 30.5007 78.7498 30.5007H89.9998C91.0347 30.5007 91.8747 29.6607 91.8747 28.6258V21.126C91.8747 20.7206 91.7434 20.3251 91.5 20.001ZM88.125 26.751H80.6252V21.7511L84.3754 16.7512L88.1256 21.7511L88.125 26.751Z" fill="#6D767E"/>
<path d="M84.3748 0.5C83.3399 0.5 82.5 1.33991 82.5 2.37482V13.6248C82.5 14.6597 83.3399 15.4997 84.3748 15.4997C85.4097 15.4997 86.2496 14.6597 86.2496 13.6248V2.37482C86.2496 1.33991 85.4097 0.5 84.3748 0.5Z" fill="#6D767E"/>
<path d="M90 47.3749H78.75V51.1251H90V47.3749Z" fill="#6D767E"/>
<path d="M90 54.875H78.75V58.6252H90V54.875Z" fill="#6D767E"/>
<path d="M90 62.3751H78.75V66.1253H90V62.3751Z" fill="#6D767E"/>
<path d="M90 69.8749H78.75V73.6251H90V69.8749Z" fill="#6D767E"/>
<path d="M90 77.375H78.75V81.1252H90V77.375Z" fill="#6D767E"/>
<path d="M90 84.8751H78.75V88.6253H90V84.8751Z" fill="#6D767E"/>
<path d="M90 92.375H78.75V96.1252H90V92.375Z" fill="#6D767E"/>
<path d="M90 99.875H78.75V103.625H90V99.875Z" fill="#6D767E"/>
<path d="M73.125 69.8749H46.8748C45.8399 69.8749 45 70.7148 45 71.7497V77.3747C45 78.4096 45.8399 79.2495 46.8748 79.2495H73.125C74.16 79.2495 74.9999 78.4096 74.9999 77.3747V71.7497C74.9999 70.7153 74.16 69.8749 73.125 69.8749ZM71.2502 75.4999H48.7502V73.6251H71.2502V75.4999Z" fill="#6D767E"/>
<path d="M61.2056 75.9372C60.4124 75.2726 59.2292 75.3775 58.5645 76.1718L45.7517 91.484C45.087 92.2783 45.1919 93.461 45.9862 94.1251C46.3367 94.4185 46.7635 94.5618 47.1881 94.5618C47.7237 94.5618 48.256 94.3339 48.6274 93.8906L61.4402 78.5783C62.1043 77.784 61.9994 76.6014 61.2056 75.9372Z" fill="#6D767E"/>
<path d="M74.5632 91.4844L61.7504 76.1722C61.0857 75.3773 59.9025 75.2724 59.1093 75.9376C58.315 76.6023 58.2101 77.7844 58.8747 78.5788L71.6865 93.891C72.0578 94.3343 72.589 94.5633 73.1257 94.5633C73.5503 94.5633 73.9771 94.4211 74.3287 94.1255C75.123 93.4609 75.2279 92.2787 74.5632 91.4844Z" fill="#6D767E"/>
</g>
<defs>
<clipPath id="clip0_5762_71247">
<rect width="120" height="120" fill="white" transform="translate(0 0.5)"/>
</clipPath>
</defs>
</svg>
