<svg width="120" height="121" viewBox="0 0 120 121" fill="none" xmlns="http://www.w3.org/2000/svg">
<g clip-path="url(#clip0_5762_71369)">
<path fill-rule="evenodd" clip-rule="evenodd" d="M64.8864 74.0325H55.3961C54.3416 74.0325 53.498 73.2592 53.498 72.2047V62.2926C51.4593 62.2926 48.5771 62.855 48.5771 60.4649C48.5771 59.4104 49.4207 58.6371 50.4049 58.6371H55.3961C56.4506 58.6371 57.2941 59.4104 57.2941 60.4649L57.2238 70.377H63.0586L63.1289 60.4649C63.1289 59.4104 63.9725 58.6371 64.9567 58.6371H69.8776C72.3381 58.6371 72.3381 62.2926 69.8776 62.2926H66.8548L66.7845 72.2047C66.7845 73.2592 65.9409 74.0325 64.8864 74.0325ZM64.8864 83.8743H55.3961C52.9356 83.8743 52.9356 80.1485 55.3961 80.1485H64.8864C67.3469 80.1485 67.3469 83.8743 64.8864 83.8743ZM97.7862 120.43H76.556H43.7265H22.215C21.1606 120.43 20.3873 119.656 20.3873 118.602V107.424V93.435V83.0308L3.86706 67.9868C3.44527 67.6353 3.23438 67.1432 3.23438 66.7214V66.6511C3.23438 66.3699 3.30467 66.0185 3.44527 65.7373L31.0024 13.9271C31.0727 13.7865 31.2133 13.6459 31.2836 13.5756C31.6351 13.1538 32.1272 12.9429 32.6896 12.9429H49.4207L49.2098 12.029C47.7335 5.77241 54.0604 0.5 60.2467 0.5C66.2221 0.5 72.7599 5.70211 71.2836 12.029L71.0727 12.9429H87.7335C88.5771 12.9429 89.1395 13.3647 89.4207 13.9974L102.848 39.6564C102.918 39.7267 102.918 39.797 102.988 39.8673L111.213 55.6142C111.354 55.7548 111.424 55.9657 111.494 56.1766L116.486 65.667C116.837 66.2293 116.837 67.0026 116.415 67.6353C116.275 67.8462 116.134 67.9868 115.994 68.1274L99.614 82.8902V118.602C99.614 119.656 98.7704 120.43 97.7862 120.43ZM42.8829 80.7109C43.0235 80.8515 43.2344 80.9921 43.3047 81.203L44.781 82.6793C44.9216 82.7496 45.1324 82.8902 45.2027 83.0308C48.9989 86.2645 53.8495 88.2329 59.1922 88.2329H61.1606C66.433 88.2329 71.2836 86.3348 75.0094 83.1011C75.15 82.8902 75.3609 82.7496 75.5718 82.609C76.0639 82.1872 76.556 81.6248 77.0481 81.1327C77.1184 80.9921 77.259 80.8515 77.3996 80.7109C80.563 76.9851 82.5314 72.1344 82.5314 66.862V55.5439H37.7511V66.862C37.7511 72.1344 39.6491 76.9148 42.8829 80.7109ZM24.0428 84.0852V91.5369H41.8987V85.0694C41.5472 84.7179 41.1957 84.3664 40.9145 84.0852H24.0428ZM24.0428 109.252V116.774H41.8987V109.252H24.0428ZM78.3838 116.774H95.8882V109.252H78.3838V116.774ZM95.8882 91.5369V84.0852H79.368C79.0868 84.4367 78.7353 84.7179 78.3838 85.0694V91.5369H95.8882ZM82.3205 80.3594H94.1307H96.8723L110.018 68.4789H86.1869C85.9057 72.8374 84.4998 76.8445 82.3205 80.3594ZM9.91276 68.4789L22.918 80.3594H37.962C35.7827 76.8445 34.3767 72.8374 34.0955 68.4789H9.91276ZM61.1606 91.9587H59.1922C58.3486 91.9587 57.505 91.8884 56.6614 91.8181V102.574C56.6614 107.143 63.621 107.143 63.621 102.574V91.8181C62.7774 91.8884 61.9339 91.9587 61.1606 91.9587ZM52.9356 91.1854C50.3346 90.4824 47.8038 89.4279 45.6245 87.9517V93.0835V93.435V107.424V107.635V116.774H74.6579V107.424V93.435V87.9517C72.4787 89.4279 69.9479 90.4824 67.3469 91.1854V102.574C67.3469 106.581 64.1131 109.815 60.1764 109.815C56.1694 109.815 52.9356 106.581 52.9356 102.574V91.1854ZM34.0252 64.7531V58.6371H11.4593L8.22559 64.7531H34.0252ZM34.0252 54.9112V53.6459V42.5387H20.0358L13.4277 54.9112H34.0252ZM86.2572 53.6459V54.9112H106.644L100.176 42.5387H86.2572V53.6459ZM86.2572 58.6371V64.7531H111.776L108.612 58.6371H86.2572ZM22.0041 38.8128H35.9233H44.2889L32.7599 18.6371L22.0041 38.8128ZM84.3592 38.8128H98.2783L87.6632 18.7074L76.2748 38.8128H84.3592ZM37.7511 51.8181H82.5314V42.5387H73.3223C73.252 42.609 73.1817 42.609 73.0411 42.609L47.4523 42.5387H37.7511V51.8181ZM65.8706 29.1116H54.6228C53.7792 29.1116 53.0059 28.4789 52.795 27.6353L50.2643 16.6687H35.9233L48.5771 38.8128H71.9866L84.5701 16.6687H70.2291L67.6281 27.6353C67.4172 28.4789 66.7142 29.1116 65.8706 29.1116ZM56.0991 25.3858H64.324L67.6281 11.1854C68.9637 5.56151 58.7001 1.06239 53.8495 7.24868C53.1465 8.16257 52.4435 9.49824 52.795 11.1854L56.0991 25.3858ZM41.8987 105.526V95.2627H24.0428V105.526H41.8987ZM78.3838 105.526H95.8882V95.2627H78.3838V105.526Z" fill="#6D767E"/>
</g>
<defs>
<clipPath id="clip0_5762_71369">
<rect width="120" height="120" fill="white" transform="translate(0 0.5)"/>
</clipPath>
</defs>
</svg>
