<svg width="32" height="32" viewBox="0 0 32 32" fill="none" xmlns="http://www.w3.org/2000/svg">
<g clip-path="url(#clip0_5762_79345)">
<path d="M24.3282 21.1686C23.2827 20.1365 21.9776 20.1365 20.9388 21.1686C20.1464 21.9544 19.354 22.7401 18.5749 23.5392C18.3618 23.7589 18.182 23.8055 17.9223 23.6591C17.4096 23.3794 16.8635 23.153 16.3708 22.8467C14.0735 21.4017 12.149 19.5439 10.4444 17.453C9.59869 16.4142 8.84623 15.3021 8.32018 14.0503C8.21364 13.7972 8.23361 13.6308 8.44004 13.4243C9.23245 12.6586 10.0049 11.8728 10.784 11.0871C11.8694 9.99499 11.8694 8.71649 10.7773 7.61777C10.158 6.99183 9.53876 6.37921 8.91948 5.75328C8.28022 5.11402 7.64763 4.46811 7.00172 3.83551C5.95627 2.8167 4.65112 2.8167 3.61234 3.84217C2.81327 4.62792 2.0475 5.43365 1.23511 6.20608C0.482654 6.91858 0.103097 7.7909 0.0231904 8.80971C-0.103329 10.4678 0.302864 12.0326 0.875529 13.5575C2.0475 16.7138 3.83208 19.5172 5.99622 22.0876C8.91948 25.5635 12.4087 28.3136 16.4906 30.298C18.3285 31.1903 20.2329 31.8761 22.3039 31.9893C23.7289 32.0692 24.9674 31.7097 25.9596 30.5976C26.6388 29.8385 27.4046 29.146 28.1237 28.4202C29.1892 27.3414 29.1958 26.0363 28.1371 24.9709C26.8719 23.699 25.6 22.4338 24.3282 21.1686Z" fill="white"/>
<path opacity="0.4" d="M22.7577 14.6533C22.9708 15.3076 23.6056 15.7677 24.2839 15.6519C24.9628 15.536 25.4261 14.8885 25.2343 14.2271C24.7192 12.4515 23.7659 10.8434 22.4435 9.51557C21.03 8.10203 19.3075 7.12008 17.4075 6.63351C16.74 6.46259 16.1066 6.94552 16.011 7.62786C15.9154 8.31013 16.3949 8.93163 17.0563 9.12458C18.4201 9.52248 19.6588 10.2534 20.6856 11.2802C21.6415 12.2361 22.3451 13.3862 22.7577 14.6533Z" fill="white"/>
<path opacity="0.4" d="M26.8982 5.18062C24.3577 2.64009 21.2136 0.938109 17.7387 0.21339C17.0644 0.0727745 16.4329 0.552696 16.3373 1.23477C16.2416 1.9172 16.7189 2.54294 17.3919 2.69126C20.3281 3.33843 22.9863 4.79712 25.1403 6.94523C27.1686 8.97354 28.5882 11.4685 29.284 14.2176C29.4527 14.8843 30.0912 15.3415 30.769 15.2258C31.4479 15.1099 31.9081 14.4635 31.7455 13.7942C30.9537 10.5351 29.2926 7.58091 26.8982 5.18062Z" fill="white"/>
</g>
<defs>
<clipPath id="clip0_5762_79345">
<rect width="32" height="32" fill="white"/>
</clipPath>
</defs>
</svg>
