<svg width="48" height="44" viewBox="0 0 48 44" fill="none" xmlns="http://www.w3.org/2000/svg">
<path d="M31.8203 22.6781H41.2003C41.0403 31.2398 39.2003 32.6515 33.4603 35.7681C32.8003 36.1348 32.5803 36.9048 32.9803 37.5281C33.3803 38.1331 34.2203 38.3348 34.9003 37.9681C41.6603 34.3015 44.0203 32.0648 44.0203 21.3948V11.5131C44.0203 8.37814 41.2403 5.84814 37.8403 5.84814H31.8403C28.3203 5.84814 25.6603 8.28648 25.6603 11.5131V17.0131C25.6403 20.2398 28.3003 22.6781 31.8203 22.6781Z" fill="#E9EAEC"/>
<path d="M10.1805 22.6781H19.5605C19.4005 31.2398 17.5605 32.6515 11.8205 35.7681C11.1605 36.1348 10.9405 36.9048 11.3405 37.5281C11.7405 38.1331 12.5805 38.3348 13.2605 37.9681C20.0205 34.3015 22.3805 32.0648 22.3805 21.3948V11.5131C22.3805 8.37814 19.6005 5.84814 16.2005 5.84814H10.2005C6.66049 5.84814 4.00049 8.28648 4.00049 11.5131V17.0131C4.00049 20.2398 6.66049 22.6781 10.1805 22.6781Z" fill="#E9EAEC"/>
</svg>
