<svg width="59" height="64" viewBox="0 0 59 64" fill="none" xmlns="http://www.w3.org/2000/svg">
<path d="M57.8853 8.78091L49.8853 0.780909C49.4786 0.374216 48.9512 0.109943 48.382 0.0275224C47.8127 -0.0548986 47.2321 0.0489509 46.7267 0.323575C44.2688 1.65372 41.5201 2.35523 38.7255 2.36558C35.9308 2.37593 33.177 1.69481 30.7093 0.382909C30.294 0.132697 29.8182 0.000478091 29.3333 0.000478091C28.8484 0.000478091 28.3727 0.132697 27.9573 0.382909C25.4875 1.68781 22.7346 2.36494 19.9413 2.35459C17.1479 2.34424 14.4001 1.64673 11.94 0.323575C11.4346 0.0489509 10.854 -0.0548986 10.2847 0.0275224C9.71544 0.109943 9.18809 0.374216 8.78133 0.780909L0.781333 8.78091C0.533614 9.02855 0.33711 9.32258 0.203046 9.64618C0.0689832 9.96979 -1.27669e-05 10.3166 1.77193e-09 10.6669V40.0002C8.98688e-05 40.4001 0.0899953 40.7949 0.263078 41.1553C0.43616 41.5158 0.687999 41.8328 1 42.0829L27.6667 63.4163C28.1396 63.7949 28.7275 64.0013 29.3333 64.0013C29.9392 64.0013 30.527 63.7949 31 63.4163L57.6667 42.0829C57.9787 41.8328 58.2305 41.5158 58.4036 41.1553C58.5767 40.7949 58.6666 40.4001 58.6667 40.0002V10.6669C58.6667 10.3166 58.5977 9.96979 58.4636 9.64618C58.3296 9.32258 58.1331 9.02855 57.8853 8.78091Z" fill="#E9EAEC"/>
<path d="M14.3333 36.7496C14.0212 36.4996 13.7692 36.1827 13.5961 35.8222C13.423 35.4617 13.3332 35.0668 13.3333 34.6669V5.33358C13.3335 4.62639 13.6145 3.94822 14.1147 3.44824L15.728 1.83491C14.4091 1.48543 13.1372 0.977983 11.94 0.323575C11.4346 0.0489509 10.854 -0.0548986 10.2847 0.0275224C9.71544 0.109943 9.18809 0.374216 8.78133 0.780909L0.781333 8.78091C0.533614 9.02855 0.33711 9.32258 0.203046 9.64618C0.0689832 9.96979 -1.27669e-05 10.3166 1.77193e-09 10.6669V40.0002C8.98688e-05 40.4001 0.0899953 40.7949 0.263078 41.1553C0.43616 41.5158 0.687999 41.8328 1 42.0829L27.6667 63.4163C28.1396 63.7949 28.7275 64.0013 29.3333 64.0013C29.9392 64.0013 30.527 63.7949 31 63.4163L39.3333 56.7496L14.3333 36.7496Z" fill="#DAE9DB"/>
<path d="M49.8853 12.0949L47.9487 10.1616C47.6138 9.82728 47.196 9.58796 46.7383 9.46813C46.2805 9.3483 45.7991 9.35225 45.3433 9.47957C40.3607 10.8399 35.0798 10.6304 30.2207 8.87958C29.6465 8.67696 29.0202 8.67696 28.446 8.87958C23.5868 10.6304 18.3059 10.8399 13.3233 9.47957C12.8676 9.35232 12.3862 9.3484 11.9284 9.46823C11.4707 9.58806 11.0529 9.82733 10.718 10.1616L8.78133 12.0949C8.53361 12.3426 8.33711 12.6366 8.20305 12.9602C8.06898 13.2838 7.99999 13.6306 8 13.9809V36.1549C7.99985 36.5548 8.08965 36.9496 8.26275 37.3102C8.43585 37.6707 8.68782 37.9876 9 38.2376L27.6667 53.1709C28.1396 53.5496 28.7275 53.7559 29.3333 53.7559C29.9392 53.7559 30.527 53.5496 31 53.1709L49.6667 38.2376C49.9789 37.9876 50.2308 37.6707 50.4039 37.3102C50.577 36.9496 50.6668 36.5548 50.6667 36.1549V13.9809C50.6667 13.6306 50.5977 13.2838 50.4636 12.9602C50.3296 12.6366 50.1331 12.3426 49.8853 12.0949Z" fill="url(#paint0_linear_4699_12602)"/>
<path d="M26.6669 37.3336C26.3167 37.334 25.9699 37.2652 25.6464 37.1312C25.3229 36.9973 25.029 36.8007 24.7816 36.5529L19.4482 31.2196L23.2189 27.4476L26.6669 30.8956L35.4482 22.1142L39.2189 25.8862L28.5522 36.5529C28.3048 36.8007 28.0109 36.9973 27.6874 37.1312C27.3639 37.2652 27.0171 37.334 26.6669 37.3336Z" fill="white"/>
<defs>
<linearGradient id="paint0_linear_4699_12602" x1="12.5707" y1="41.8309" x2="46.096" y2="8.30558" gradientUnits="userSpaceOnUse">
<stop stop-color="#23AD00"/>
<stop offset="1" stop-color="#E4EEE5"/>
</linearGradient>
</defs>
</svg>
