<svg width="120" height="121" viewBox="0 0 120 121" fill="none" xmlns="http://www.w3.org/2000/svg">
<g clip-path="url(#clip0_5762_71365)">
<path d="M103.688 107.844H92.4319V88.1562C94.8935 87.8777 97.1666 86.7034 98.8182 84.857C100.47 83.0106 101.384 80.6211 101.388 78.1438V67.7094C101.388 67.2743 101.215 66.8569 100.907 66.5493C100.6 66.2416 100.182 66.0688 99.7472 66.0688H97.3828C97.118 66.0692 96.8571 66.1335 96.6224 66.2562C96.3877 66.3789 96.1861 66.5565 96.0347 66.7738L90.6562 74.5241L80.5078 62.7116V49.0184H81.93C84.602 49.0147 87.1634 47.9512 89.0522 46.0613C90.941 44.1715 92.0031 41.6095 92.0053 38.9375V28.5106C92.0053 28.0755 91.8325 27.6582 91.5248 27.3505C91.2171 27.0429 90.7998 26.87 90.3647 26.87H88.0003C87.7355 26.8701 87.4747 26.9342 87.2401 27.057C87.0055 27.1798 86.8041 27.3575 86.6531 27.575L80.9344 35.8025C77.8313 33.8412 69.7959 28.25 65.8003 20.7153H67.0387C67.7467 20.7153 68.4476 20.5759 69.1017 20.305C69.7557 20.0341 70.3499 19.637 70.8505 19.1364C71.3511 18.6359 71.7481 18.0416 72.019 17.3876C72.2899 16.7336 72.4294 16.0326 72.4294 15.3247C72.4294 14.6168 72.2899 13.9158 72.019 13.2618C71.7481 12.6078 71.3511 12.0135 70.8505 11.5129C70.3499 11.0124 69.7557 10.6153 69.1017 10.3444C68.4476 10.0735 67.7467 9.93406 67.0387 9.93406H65.2444V2.13781C65.2436 1.70318 65.0704 1.2866 64.7629 0.979533C64.4553 0.672464 64.0384 0.499999 63.6038 0.5L56.3962 0.5C55.9611 0.5 55.5438 0.672851 55.2362 0.980528C54.9285 1.2882 54.7556 1.7055 54.7556 2.14062V9.93688H52.9613C51.5316 9.93688 50.1604 10.5048 49.1495 11.5158C48.1386 12.5267 47.5706 13.8978 47.5706 15.3275C47.5706 16.7572 48.1386 18.1283 49.1495 19.1392C50.1604 20.1502 51.5316 20.7181 52.9613 20.7181H54.1997C50.2041 28.2566 42.1688 33.8431 39.0609 35.8053L33.3469 27.575C33.1959 27.3575 32.9945 27.1798 32.7599 27.057C32.5253 26.9342 32.2645 26.8701 31.9997 26.87H29.6353C29.2002 26.87 28.7829 27.0429 28.4752 27.3505C28.1675 27.6582 27.9947 28.0755 27.9947 28.5106V38.9375C27.9977 41.6095 29.0604 44.1712 30.9498 46.0605C32.8392 47.9499 35.4008 49.0126 38.0728 49.0156H39.495V62.7106L29.3438 74.5241L23.9625 66.7738C23.8111 66.5565 23.6095 66.3789 23.3748 66.2562C23.1401 66.1335 22.8792 66.0692 22.6144 66.0688H20.25C19.815 66.069 19.3978 66.2419 19.0902 66.5496C18.7826 66.8572 18.6096 67.2743 18.6094 67.7094V78.1391C18.6119 80.6176 19.5265 83.0084 21.1787 84.8559C22.8309 86.7033 25.1053 87.8781 27.5681 88.1562V107.844H16.3125C14.6348 107.846 13.0264 108.513 11.84 109.699C10.6537 110.886 9.98636 112.494 9.98438 114.172V118.859C9.98438 119.294 10.1572 119.712 10.4649 120.019C10.7726 120.327 11.1899 120.5 11.625 120.5H108.375C108.81 120.5 109.227 120.327 109.535 120.019C109.843 119.712 110.016 119.294 110.016 118.859V114.172C110.014 112.494 109.346 110.886 108.16 109.699C106.974 108.513 105.365 107.846 103.688 107.844ZM58.0312 3.78125H61.9575V9.93688H58.0369L58.0312 3.78125ZM50.8519 15.3247C50.8526 14.7655 51.0751 14.2294 51.4705 13.834C51.8659 13.4385 52.402 13.2161 52.9613 13.2153H67.0387C67.3158 13.2153 67.5901 13.2699 67.846 13.3759C68.1019 13.4819 68.3344 13.6373 68.5303 13.8331C68.7262 14.029 68.8816 14.2615 68.9876 14.5175C69.0936 14.7734 69.1481 15.0477 69.1481 15.3247C69.1481 15.6017 69.0936 15.876 68.9876 16.1319C68.8816 16.3878 68.7262 16.6204 68.5303 16.8162C68.3344 17.0121 68.1019 17.1675 67.846 17.2735C67.5901 17.3795 67.3158 17.4341 67.0387 17.4341H52.9613C52.402 17.4333 51.8659 17.2108 51.4705 16.8154C51.0751 16.42 50.8526 15.8839 50.8519 15.3247ZM57.8578 20.7153H62.1422C65.2884 27.7175 71.5453 33.1841 75.9037 36.3622H44.0963C48.4547 33.1859 54.7116 27.7175 57.8578 20.7153ZM31.2759 38.9375V30.3444L37.2441 38.9375C37.4 39.15 37.6024 39.324 37.8359 39.4462C38.0694 39.5684 38.3278 39.6355 38.5913 39.6425H81.4087C81.6722 39.6357 81.9306 39.5686 82.1642 39.4463C82.3977 39.3241 82.6001 39.1501 82.7559 38.9375L88.7241 30.3434V38.9375C88.7221 40.7395 88.0053 42.4672 86.7311 43.7414C85.4569 45.0157 83.7292 45.7324 81.9272 45.7344H38.0728C36.2708 45.7324 34.5431 45.0157 33.2689 43.7414C31.9947 42.4672 31.2779 40.7395 31.2759 38.9375ZM77.2237 49.0156V61.6719H73.005V54.875C73.005 54.4399 72.8321 54.0226 72.5245 53.7149C72.2168 53.4072 71.7995 53.2344 71.3644 53.2344H48.6356C48.2005 53.2344 47.7832 53.4072 47.4755 53.7149C47.1679 54.0226 46.995 54.4399 46.995 54.875V61.6756H42.7762V49.0194L77.2237 49.0156ZM69.7238 61.6719H50.2762V56.5156H69.7238V61.6719ZM41.8894 64.9531H78.1106L87.2184 75.5544H32.7816L41.8894 64.9531ZM21.8925 78.1391V69.5441L27.8616 78.1381C28.0179 78.3501 28.2204 78.5237 28.4539 78.6457C28.6873 78.7677 28.9455 78.8349 29.2087 78.8422H90.7913C91.0545 78.8349 91.3127 78.7677 91.5461 78.6457C91.7796 78.5237 91.9821 78.3501 92.1384 78.1381L98.1066 69.5441V78.1391C98.1048 79.941 97.3883 81.6687 96.1142 82.9429C94.8401 84.2172 93.1126 84.934 91.3106 84.9359H28.6875C26.8858 84.9335 25.1586 84.2165 23.8848 82.9423C22.611 81.6681 21.8945 79.9408 21.8925 78.1391ZM30.8494 88.2172H89.1506V107.844H84.9319V94.0766C84.9316 93.6415 84.7587 93.2244 84.4511 92.9167C84.1434 92.6091 83.7263 92.4362 83.2913 92.4359H36.7087C36.2737 92.4362 35.8566 92.6091 35.5489 92.9167C35.2413 93.2244 35.0684 93.6415 35.0681 94.0766V107.844H30.8494V88.2172ZM81.6506 107.844H38.3494V95.7172H81.6506V107.844ZM106.738 117.219H13.2619V114.172C13.2629 113.363 13.5847 112.588 14.1567 112.017C14.7287 111.446 15.5041 111.125 16.3125 111.125H103.688C104.495 111.126 105.27 111.447 105.841 112.019C106.412 112.59 106.733 113.364 106.734 114.172L106.738 117.219Z" fill="#6D767E"/>
</g>
<defs>
<clipPath id="clip0_5762_71365">
<rect width="120" height="120" fill="white" transform="translate(0 0.5)"/>
</clipPath>
</defs>
</svg>
