<svg width="120" height="121" viewBox="0 0 120 121" fill="none" xmlns="http://www.w3.org/2000/svg">
<path d="M117.135 32.5962C116.836 32.4361 116.498 32.3602 116.159 32.3767C115.82 32.3932 115.492 32.5015 115.209 32.69L112.397 34.565C110.704 35.6572 108.707 36.1808 106.696 36.0594C104.685 35.938 102.765 35.178 101.216 33.89L97.9388 31.0775C100.594 29.9022 102.851 27.9823 104.437 25.5503C106.023 23.1183 106.87 20.2785 106.875 17.375C106.875 17.0355 106.783 16.7024 106.609 16.4112C106.434 16.12 106.184 15.8816 105.885 15.7215C105.585 15.5613 105.248 15.4855 104.909 15.5019C104.57 15.5184 104.242 15.6266 103.959 15.815L99.8513 18.5544C99.1486 19.0123 98.325 19.2497 97.4864 19.236C96.6477 19.2223 95.8324 18.9581 95.145 18.4775L87.5625 13.0625C87.9323 12.1945 88.1236 11.261 88.125 10.3175C88.123 9.40688 88.3761 8.51392 88.8557 7.73979C89.3352 6.96566 90.0219 6.34132 90.8381 5.9375C91.2218 5.75176 91.5307 5.44085 91.7139 5.05602C91.8972 4.67118 91.9439 4.23539 91.8462 3.82048C91.7486 3.40557 91.5126 3.0363 91.177 2.77354C90.8413 2.51078 90.4262 2.37021 90 2.375H84.8175C83.4141 2.37129 82.031 2.71109 80.7891 3.36474C79.5471 4.0184 78.484 4.96604 77.6925 6.125H42.3169C41.5254 4.96604 40.4622 4.0184 39.2203 3.36474C37.9784 2.71109 36.5953 2.37129 35.1919 2.375H30C29.5738 2.37021 29.1587 2.51078 28.823 2.77354C28.4874 3.0363 28.2514 3.40557 28.1538 3.82048C28.0561 4.23539 28.1028 4.67118 28.2861 5.05602C28.4693 5.44085 28.7782 5.75176 29.1619 5.9375C29.9781 6.34132 30.6648 6.96566 31.1443 7.73979C31.6239 8.51392 31.877 9.40688 31.875 10.3175C31.8764 11.261 32.0677 12.1945 32.4375 13.0625L24.855 18.4775C24.1676 18.9581 23.3523 19.2223 22.5136 19.236C21.675 19.2497 20.8514 19.0123 20.1488 18.5544L16.0406 15.815C15.7582 15.6266 15.43 15.5184 15.091 15.5019C14.7519 15.4855 14.4147 15.5613 14.1154 15.7215C13.8161 15.8816 13.5659 16.12 13.3915 16.4112C13.2171 16.7024 13.1249 17.0355 13.125 17.375C13.1291 20.2797 13.9757 23.1208 15.5621 25.5539C17.1486 27.9871 19.4069 29.9078 22.0631 31.0831L18.7856 33.8956C17.2367 35.1832 15.3173 35.9429 13.3068 36.0643C11.2963 36.1857 9.29948 35.6624 7.60688 34.5706L4.79437 32.6956C4.51235 32.5065 4.18426 32.3975 3.84513 32.3802C3.50599 32.363 3.16854 32.4382 2.8688 32.5978C2.56907 32.7574 2.3183 32.9954 2.14327 33.2864C1.96824 33.5774 1.87551 33.9104 1.875 34.25C1.88067 38.3984 3.41271 42.3997 6.17907 45.4911C8.94543 48.5825 12.7527 50.5479 16.875 51.0125V56.75C16.875 57.2473 17.0725 57.7242 17.4242 58.0758C17.7758 58.4275 18.2527 58.625 18.75 58.625H20.625V96.125H18.75C17.7868 96.125 16.8398 96.3723 15.9996 96.8432C15.1595 97.3142 14.4543 97.9929 13.9516 98.8145C13.449 99.6361 13.1658 100.573 13.129 101.536C13.0923 102.498 13.3033 103.454 13.7419 104.311C12.188 105.026 10.9251 106.25 10.1626 107.781C9.40009 109.312 9.18375 111.058 9.54947 112.729C9.91519 114.399 10.841 115.895 12.1734 116.968C13.5057 118.04 15.1646 118.625 16.875 118.625H33.75C34.2473 118.625 34.7242 118.427 35.0758 118.076C35.4275 117.724 35.625 117.247 35.625 116.75V58.625H84.375V116.75C84.375 117.247 84.5725 117.724 84.9242 118.076C85.2758 118.427 85.7527 118.625 86.25 118.625H103.125C104.835 118.625 106.494 118.04 107.827 116.968C109.159 115.895 110.085 114.399 110.451 112.729C110.816 111.058 110.6 109.312 109.837 107.781C109.075 106.25 107.812 105.026 106.258 104.311C106.697 103.454 106.908 102.498 106.871 101.536C106.834 100.573 106.551 99.6361 106.048 98.8145C105.546 97.9929 104.841 97.3142 104 96.8432C103.16 96.3723 102.213 96.125 101.25 96.125H99.375V58.625H101.25C101.747 58.625 102.224 58.4275 102.576 58.0758C102.927 57.7242 103.125 57.2473 103.125 56.75V51.0144C107.247 50.5489 111.054 48.5831 113.821 45.4915C116.587 42.3998 118.119 38.3985 118.125 34.25C118.125 33.9105 118.033 33.5774 117.859 33.2862C117.684 32.9949 117.434 32.7565 117.135 32.5962ZM101.931 21.6744L102.394 21.365C101.582 23.4979 100.141 25.3341 98.2632 26.6305C96.3849 27.9269 94.1572 28.6224 91.875 28.625H89.1638L82.0706 17.2737C83.209 17.1132 84.2902 16.6746 85.2188 15.9969L92.9663 21.53C94.276 22.4446 95.8291 22.947 97.4264 22.9727C99.0236 22.9984 100.592 22.5463 101.931 21.6744ZM42.2888 17.375H47.9138L43.695 28.625H35.25L42.2888 17.375ZM77.7112 17.375L84.7425 28.625H76.305L72.0862 17.375H77.7112ZM68.0756 17.375L72.2944 28.625H61.875V17.375H68.0756ZM58.125 28.625H47.7056L51.9244 17.375H58.125V28.625ZM46.5375 32.375L46.4044 33.17C45.5745 38.0899 44.0651 42.8706 41.9194 47.375H26.3362C31.0794 43.3544 34.7207 38.1922 36.9169 32.375H46.5375ZM50.1 33.7869L50.3381 32.375H58.125V47.375H46.035C47.9455 43.0304 49.3121 38.4665 50.1038 33.7869H50.1ZM61.875 32.375H69.6619L69.8962 33.7869C70.6879 38.4665 72.0545 43.0304 73.965 47.375H61.875V32.375ZM78.0806 47.375C75.9352 42.8711 74.4257 38.0911 73.5956 33.1719L73.4625 32.375H83.0831C85.2793 38.1922 88.9206 43.3544 93.6637 47.375H78.0806ZM35.1825 6.125C36.0947 6.12127 36.9897 6.37356 37.7656 6.85318C38.5415 7.3328 39.1674 8.02051 39.5719 8.83812C39.7276 9.14981 39.9671 9.41193 40.2636 9.59508C40.56 9.77823 40.9016 9.87516 41.25 9.875H78.75C79.1 9.87691 79.4436 9.7808 79.7418 9.59755C80.0401 9.41431 80.281 9.15124 80.4375 8.83812C80.8413 8.02194 81.4657 7.33518 82.2398 6.85566C83.0139 6.37614 83.9069 6.12302 84.8175 6.125H85.4475C84.7411 7.40925 84.372 8.85177 84.375 10.3175C84.3735 11.1942 84.0246 12.0347 83.4046 12.6546C82.7847 13.2746 81.9442 13.6235 81.0675 13.625H38.9325C38.0558 13.6235 37.2153 13.2746 36.5954 12.6546C35.9754 12.0347 35.6265 11.1942 35.625 10.3175C35.628 8.85177 35.2589 7.40925 34.5525 6.125H35.1825ZM17.6063 21.365L18.0694 21.6744C19.4079 22.5463 20.9764 22.9984 22.5736 22.9727C24.1709 22.947 25.724 22.4446 27.0338 21.53L34.7812 15.9969C35.7098 16.6746 36.791 17.1132 37.9294 17.2737L30.8362 28.625H28.125C25.8428 28.6224 23.6151 27.9269 21.7368 26.6305C19.8585 25.3341 18.4181 23.4979 17.6063 21.365ZM6.20438 38.1106C8.55214 39.4319 11.2461 40.0084 13.929 39.7636C16.6119 39.5188 19.157 38.4644 21.2269 36.74L26.4375 32.2737C26.9977 32.3388 27.5611 32.3726 28.125 32.375H32.9081C30.4052 38.2272 26.2574 43.227 20.9681 46.7675L20.0625 47.375H18.75C15.9439 47.3717 13.2125 46.4707 10.9552 44.8038C8.69792 43.1369 7.03315 40.7915 6.20438 38.1106ZM18.75 99.875H31.875V103.625H18.75C18.2527 103.625 17.7758 103.427 17.4242 103.076C17.0725 102.724 16.875 102.247 16.875 101.75C16.875 101.253 17.0725 100.776 17.4242 100.424C17.7758 100.073 18.2527 99.875 18.75 99.875ZM16.875 114.875C15.8804 114.875 14.9266 114.48 14.2233 113.777C13.5201 113.073 13.125 112.12 13.125 111.125C13.125 110.13 13.5201 109.177 14.2233 108.473C14.9266 107.77 15.8804 107.375 16.875 107.375H31.875V114.875H16.875ZM31.875 96.125H24.375V58.625H31.875V96.125ZM106.875 111.125C106.875 112.12 106.48 113.073 105.777 113.777C105.073 114.48 104.12 114.875 103.125 114.875H88.125V107.375H103.125C104.12 107.375 105.073 107.77 105.777 108.473C106.48 109.177 106.875 110.13 106.875 111.125ZM103.125 101.75C103.125 102.247 102.927 102.724 102.576 103.076C102.224 103.427 101.747 103.625 101.25 103.625H88.125V99.875H101.25C101.747 99.875 102.224 100.073 102.576 100.424C102.927 100.776 103.125 101.253 103.125 101.75ZM95.625 96.125H88.125V58.625H95.625V96.125ZM20.625 54.875V51.125H99.375V54.875H20.625ZM101.25 47.375H99.9375L99.0262 46.7675C93.739 43.2261 89.5932 38.2264 87.0919 32.375H91.875C92.4389 32.3726 93.0023 32.3388 93.5625 32.2737L98.7731 36.74C100.843 38.4641 103.388 39.5184 106.071 39.7632C108.754 40.008 111.448 39.4317 113.796 38.1106C112.967 40.7915 111.302 43.1369 109.045 44.8038C106.787 46.4707 104.056 47.3717 101.25 47.375Z" fill="#6D767E"/>
</svg>
