<svg width="22" height="18" viewBox="0 0 22 18" fill="none" xmlns="http://www.w3.org/2000/svg">
<path d="M10.5761 4.78828L10.6233 5.56683L9.83643 5.4715C6.97206 5.10606 4.46967 3.86673 2.345 1.7853L1.30628 0.752529L1.03873 1.51519C0.472149 3.21529 0.834129 5.01072 2.0145 6.21827C2.64403 6.8856 2.50239 6.98093 1.41645 6.58371C1.03873 6.4566 0.708223 6.36127 0.676746 6.40894C0.566578 6.52016 0.944297 7.96604 1.24332 8.53804C1.65252 9.33248 2.48665 10.111 3.39947 10.5718L4.17065 10.9372L3.25782 10.9531C2.37648 10.9531 2.345 10.969 2.43943 11.3027C2.7542 12.3355 3.99752 13.4318 5.38249 13.9084L6.35827 14.2421L5.5084 14.7506C4.24934 15.4814 2.76994 15.8945 1.29054 15.9263C0.582317 15.9422 0 16.0058 0 16.0534C0 16.2123 1.92007 17.1021 3.03749 17.4516C6.38974 18.4844 10.3715 18.0395 13.3618 16.2759C15.4865 15.0207 17.6111 12.5261 18.6027 10.111C19.1378 8.82403 19.6729 6.47249 19.6729 5.34439C19.6729 4.6135 19.7201 4.51817 20.6014 3.64429C21.1208 3.13585 21.6087 2.57974 21.7031 2.42085C21.8605 2.11896 21.8447 2.11896 21.0421 2.38907C19.7043 2.86574 19.5155 2.80218 20.1765 2.08719C20.6644 1.57875 21.2467 0.657196 21.2467 0.387087C21.2467 0.33942 21.0106 0.418864 20.7431 0.561863C20.4598 0.720751 19.8302 0.959083 19.3581 1.10208L18.5082 1.37219L17.737 0.847862C17.3121 0.561863 16.7141 0.244088 16.3993 0.148755C15.5966 -0.0736882 14.3691 -0.0419106 13.6451 0.21231C11.6778 0.927306 10.4345 2.77041 10.5761 4.78828Z" fill="#A7ADB2"/>
</svg>
