<svg width="24" height="24" viewBox="0 0 24 24" fill="none" xmlns="http://www.w3.org/2000/svg">
<path d="M23.5861 19.8623H0.413812C0.185297 19.8623 0 19.677 0 19.4485V4.552C0 4.32348 0.185297 4.13818 0.413812 4.13818H23.5862C23.8147 4.13818 24 4.32348 24 4.552V19.4485C24 19.6771 23.8147 19.8623 23.5861 19.8623Z" fill="#F5F5F5"/>
<path d="M24 5.34779H0V4.552C0 4.32348 0.185297 4.13818 0.413812 4.13818H23.5862C23.8147 4.13818 24 4.32348 24 4.552L24 5.34779Z" fill="#FF4B55"/>
<path d="M24 8.97656H0V10.1861H24V8.97656Z" fill="#FF4B55"/>
<path d="M24 6.55713H0V7.76669H24V6.55713Z" fill="#FF4B55"/>
<path d="M24 12.6056H0.413812C0.185297 12.6056 0 12.4203 0 12.1918V11.396H24V12.6056Z" fill="#FF4B55"/>
<path d="M24 16.2344H0V17.4439H24V16.2344Z" fill="#FF4B55"/>
<path d="M23.5861 19.8624H0.413812C0.185297 19.8624 0 19.6771 0 19.4486V18.6528H24V19.4486C24 19.6771 23.8147 19.8624 23.5861 19.8624Z" fill="#FF4B55"/>
<path d="M24 13.8149H0V15.0245H24V13.8149Z" fill="#FF4B55"/>
<path d="M10.7586 4.13818H0.413812C0.185297 4.13818 0 4.32343 0 4.55195V12.1912C0 12.4197 0.185297 12.605 0.413812 12.605H10.7586C10.9872 12.605 11.1724 12.4197 11.1724 12.1912V4.55195C11.1724 4.32343 10.9871 4.13818 10.7586 4.13818Z" fill="#41479B"/>
<path d="M1.16186 5.0882L1.25345 5.36289L1.543 5.36509C1.5805 5.36542 1.59601 5.41323 1.56587 5.4355L1.33295 5.60753L1.42033 5.88357C1.43167 5.91929 1.39094 5.94891 1.36042 5.92707L1.12487 5.75874L0.889328 5.92712C0.858813 5.94891 0.818172 5.91934 0.829422 5.88362L0.916797 5.60757L0.683876 5.43554C0.653736 5.41323 0.669251 5.36547 0.706751 5.36514L0.996296 5.36293L1.08789 5.08825C1.0997 5.05262 1.14995 5.05262 1.16186 5.0882Z" fill="#F5F5F5"/>
<path d="M1.16186 6.52469L1.25345 6.79938L1.543 6.80158C1.5805 6.80191 1.59601 6.84972 1.56587 6.87198L1.33295 7.04401L1.42033 7.32006C1.43167 7.35578 1.39094 7.3854 1.36042 7.36356L1.12487 7.19523L0.889328 7.36361C0.858813 7.3854 0.818172 7.35583 0.829422 7.32011L0.916797 7.04406L0.683876 6.87203C0.653736 6.84972 0.669251 6.80195 0.706751 6.80163L0.996296 6.79942L1.08789 6.52474C1.0997 6.48916 1.14995 6.48916 1.16186 6.52469Z" fill="#F5F5F5"/>
<path d="M1.16186 7.96121L1.25345 8.2359L1.543 8.23811C1.5805 8.23844 1.59601 8.28625 1.56587 8.30851L1.33295 8.48055L1.42033 8.7566C1.43167 8.79232 1.39094 8.82194 1.36042 8.8001L1.12487 8.63177L0.889328 8.80014C0.858813 8.82194 0.818172 8.79236 0.829422 8.75664L0.916797 8.48059L0.683876 8.30856C0.653736 8.28625 0.669251 8.23848 0.706751 8.23815L0.996296 8.23595L1.08789 7.96126C1.0997 7.92568 1.14995 7.92568 1.16186 7.96121Z" fill="#F5F5F5"/>
<path d="M1.16186 9.39875L1.25345 9.67344L1.543 9.67564C1.5805 9.67597 1.59601 9.72378 1.56587 9.74605L1.33295 9.91808L1.42033 10.1941C1.43167 10.2298 1.39094 10.2595 1.36042 10.2376L1.12487 10.0693L0.889328 10.2377C0.858813 10.2595 0.818172 10.2299 0.829422 10.1942L0.916797 9.91812L0.683876 9.74609C0.653736 9.72378 0.669251 9.67601 0.706751 9.67569L0.996296 9.67348L1.08789 9.39879C1.0997 9.36317 1.14995 9.36317 1.16186 9.39875Z" fill="#F5F5F5"/>
<path d="M1.16186 10.8358L1.25345 11.1105L1.543 11.1127C1.5805 11.113 1.59601 11.1608 1.56587 11.1831L1.33295 11.3551L1.42033 11.6312C1.43167 11.6669 1.39094 11.6965 1.36042 11.6747L1.12487 11.5064L0.889328 11.6747C0.858813 11.6965 0.818172 11.6669 0.829422 11.6312L0.916797 11.3552L0.683876 11.1831C0.653736 11.1608 0.669251 11.1131 0.706751 11.1127L0.996296 11.1105L1.08789 10.8358C1.0997 10.8002 1.14995 10.8002 1.16186 10.8358Z" fill="#F5F5F5"/>
<path d="M2.27905 5.79227L2.37064 6.06696L2.66018 6.06916C2.69768 6.06949 2.7132 6.1173 2.68306 6.13957L2.45014 6.3116L2.53751 6.58765C2.54886 6.62337 2.50812 6.65299 2.47761 6.63115L2.24206 6.46277L2.00652 6.63115C1.976 6.65294 1.93536 6.62337 1.94661 6.58765L2.03398 6.3116L1.80106 6.13957C1.77092 6.11726 1.78644 6.06949 1.82394 6.06916L2.11348 6.06696L2.20508 5.79227C2.21684 5.75674 2.26719 5.75674 2.27905 5.79227Z" fill="#F5F5F5"/>
<path d="M2.27905 7.22932L2.37064 7.504L2.66018 7.5062C2.69768 7.50653 2.7132 7.55434 2.68306 7.57661L2.45014 7.74864L2.53751 8.02468C2.54886 8.0604 2.50812 8.09002 2.47761 8.06818L2.24206 7.89981L2.00652 8.06818C1.976 8.08997 1.93536 8.06044 1.94661 8.02468L2.03398 7.74864L1.80106 7.57661C1.77092 7.5543 1.78644 7.50653 1.82394 7.5062L2.11348 7.504L2.20508 7.22932C2.21684 7.19374 2.26719 7.19374 2.27905 7.22932Z" fill="#F5F5F5"/>
<path d="M2.27905 8.66633L2.37064 8.94102L2.66018 8.94322C2.69768 8.94355 2.7132 8.99136 2.68306 9.01363L2.45014 9.18566L2.53751 9.46171C2.54886 9.49742 2.50812 9.52705 2.47761 9.50521L2.24206 9.33683L2.00652 9.50521C1.976 9.527 1.93536 9.49742 1.94661 9.46171L2.03398 9.18566L1.80106 9.01363C1.77092 8.99132 1.78644 8.94355 1.82394 8.94322L2.11348 8.94102L2.20508 8.66633C2.21684 8.63075 2.26719 8.63075 2.27905 8.66633Z" fill="#F5F5F5"/>
<path d="M2.27905 10.1033L2.37064 10.378L2.66018 10.3802C2.69768 10.3805 2.7132 10.4283 2.68306 10.4506L2.45014 10.6226L2.53751 10.8987C2.54886 10.9344 2.50812 10.964 2.47761 10.9422L2.24206 10.7738L2.00652 10.9422C1.976 10.964 1.93536 10.9344 1.94661 10.8987L2.03398 10.6226L1.80106 10.4506C1.77092 10.4283 1.78644 10.3805 1.82394 10.3802L2.11348 10.378L2.20508 10.1033C2.21684 10.0678 2.26719 10.0678 2.27905 10.1033Z" fill="#F5F5F5"/>
<path d="M3.39233 5.08772L3.48393 5.3624L3.77348 5.36461C3.81098 5.36493 3.82649 5.41275 3.79635 5.43501L3.56343 5.60704L3.6508 5.88308C3.66215 5.9188 3.62141 5.94843 3.5909 5.92658L3.35535 5.75821L3.1198 5.92658C3.08928 5.94838 3.04864 5.9188 3.05989 5.88308L3.14727 5.60704L2.91435 5.43501C2.8842 5.4127 2.89972 5.36493 2.93722 5.36461L3.22677 5.3624L3.31836 5.08772C3.33018 5.05214 3.38047 5.05214 3.39233 5.08772Z" fill="#F5F5F5"/>
<path d="M3.39233 6.5247L3.48393 6.79938L3.77348 6.80159C3.81098 6.80191 3.82649 6.84973 3.79635 6.87199L3.56343 7.04402L3.6508 7.32007C3.66215 7.35579 3.62141 7.38541 3.5909 7.36357L3.35535 7.19519L3.1198 7.36357C3.08928 7.38536 3.04864 7.35579 3.05989 7.32007L3.14727 7.04402L2.91435 6.87199C2.8842 6.84968 2.89972 6.80191 2.93722 6.80159L3.22677 6.79938L3.31836 6.5247C3.33018 6.48916 3.38047 6.48916 3.39233 6.5247Z" fill="#F5F5F5"/>
<path d="M3.39233 7.96171L3.48393 8.2364L3.77348 8.2386C3.81098 8.23893 3.82649 8.28675 3.79635 8.30901L3.56343 8.48105L3.6508 8.7571C3.66215 8.79282 3.62141 8.82244 3.5909 8.8006L3.35535 8.63222L3.1198 8.8006C3.08928 8.8224 3.04864 8.79282 3.05989 8.7571L3.14727 8.48105L2.91435 8.30901C2.8842 8.2867 2.89972 8.23893 2.93722 8.2386L3.22677 8.2364L3.31836 7.96171C3.33018 7.92618 3.38047 7.92618 3.39233 7.96171Z" fill="#F5F5F5"/>
<path d="M3.39233 9.39875L3.48393 9.67344L3.77348 9.67564C3.81098 9.67597 3.82649 9.72378 3.79635 9.74605L3.56343 9.91808L3.6508 10.1941C3.66215 10.2298 3.62141 10.2595 3.5909 10.2376L3.35535 10.0693L3.1198 10.2376C3.08928 10.2594 3.04864 10.2298 3.05989 10.1941L3.14727 9.91808L2.91435 9.74605C2.8842 9.72374 2.89972 9.67597 2.93722 9.67564L3.22677 9.67344L3.31836 9.39875C3.33018 9.36318 3.38047 9.36318 3.39233 9.39875Z" fill="#F5F5F5"/>
<path d="M3.39233 10.8353L3.48393 11.11L3.77348 11.1122C3.81098 11.1125 3.82649 11.1603 3.79635 11.1826L3.56343 11.3546L3.6508 11.6307C3.66215 11.6664 3.62141 11.696 3.5909 11.6742L3.35535 11.5058L3.1198 11.6742C3.08928 11.696 3.04864 11.6664 3.05989 11.6307L3.14727 11.3546L2.91435 11.1826C2.8842 11.1603 2.89972 11.1125 2.93722 11.1122L3.22677 11.11L3.31836 10.8353C3.33018 10.7997 3.38047 10.7997 3.39233 10.8353Z" fill="#F5F5F5"/>
<path d="M4.50952 5.79227L4.60111 6.06696L4.89066 6.06916C4.92816 6.06949 4.94367 6.1173 4.91353 6.13957L4.68061 6.3116L4.76798 6.58765C4.77933 6.62337 4.73859 6.65299 4.70808 6.63115L4.47253 6.46277L4.23699 6.63115C4.20647 6.65294 4.16583 6.62337 4.17708 6.58765L4.26445 6.3116L4.03153 6.13957C4.00139 6.11726 4.01691 6.06949 4.05441 6.06916L4.34395 6.06696L4.43555 5.79227C4.44731 5.75674 4.49766 5.75674 4.50952 5.79227Z" fill="#F5F5F5"/>
<path d="M4.50952 7.22932L4.60111 7.504L4.89066 7.5062C4.92816 7.50653 4.94367 7.55434 4.91353 7.57661L4.68061 7.74864L4.76798 8.02468C4.77933 8.0604 4.73859 8.09002 4.70808 8.06818L4.47253 7.89981L4.23699 8.06818C4.20647 8.08997 4.16583 8.06044 4.17708 8.02468L4.26445 7.74864L4.03153 7.57661C4.00139 7.5543 4.01691 7.50653 4.05441 7.5062L4.34395 7.504L4.43555 7.22932C4.44731 7.19374 4.49766 7.19374 4.50952 7.22932Z" fill="#F5F5F5"/>
<path d="M4.50952 8.66633L4.60111 8.94102L4.89066 8.94322C4.92816 8.94355 4.94367 8.99136 4.91353 9.01363L4.68061 9.18566L4.76798 9.46171C4.77933 9.49742 4.73859 9.52705 4.70808 9.50521L4.47253 9.33683L4.23699 9.50521C4.20647 9.527 4.16583 9.49742 4.17708 9.46171L4.26445 9.18566L4.03153 9.01363C4.00139 8.99132 4.01691 8.94355 4.05441 8.94322L4.34395 8.94102L4.43555 8.66633C4.44731 8.63075 4.49766 8.63075 4.50952 8.66633Z" fill="#F5F5F5"/>
<path d="M4.50952 10.1033L4.60111 10.378L4.89066 10.3802C4.92816 10.3805 4.94367 10.4283 4.91353 10.4506L4.68061 10.6226L4.76798 10.8987C4.77933 10.9344 4.73859 10.964 4.70808 10.9422L4.47253 10.7738L4.23699 10.9422C4.20647 10.964 4.16583 10.9344 4.17708 10.8987L4.26445 10.6226L4.03153 10.4506C4.00139 10.4283 4.01691 10.3805 4.05441 10.3802L4.34395 10.378L4.43555 10.1033C4.44731 10.0678 4.49766 10.0678 4.50952 10.1033Z" fill="#F5F5F5"/>
<path d="M5.62285 5.08772L5.71444 5.3624L6.00399 5.36461C6.04149 5.36493 6.057 5.41275 6.02686 5.43501L5.79394 5.60704L5.88131 5.88308C5.89266 5.9188 5.85192 5.94843 5.82141 5.92658L5.58581 5.75821L5.35027 5.92658C5.31975 5.94838 5.27911 5.9188 5.29036 5.88308L5.37774 5.60704L5.14481 5.43501C5.11467 5.4127 5.13019 5.36493 5.16769 5.36461L5.45724 5.3624L5.54883 5.08772C5.56069 5.05214 5.61099 5.05214 5.62285 5.08772Z" fill="#F5F5F5"/>
<path d="M5.62285 6.5247L5.71444 6.79938L6.00399 6.80159C6.04149 6.80191 6.057 6.84973 6.02686 6.87199L5.79394 7.04402L5.88131 7.32007C5.89266 7.35579 5.85192 7.38541 5.82141 7.36357L5.58581 7.19519L5.35027 7.36357C5.31975 7.38536 5.27911 7.35579 5.29036 7.32007L5.37774 7.04402L5.14481 6.87199C5.11467 6.84968 5.13019 6.80191 5.16769 6.80159L5.45724 6.79938L5.54883 6.5247C5.56069 6.48916 5.61099 6.48916 5.62285 6.5247Z" fill="#F5F5F5"/>
<path d="M5.62285 7.96171L5.71444 8.2364L6.00399 8.2386C6.04149 8.23893 6.057 8.28675 6.02686 8.30901L5.79394 8.48105L5.88131 8.7571C5.89266 8.79282 5.85192 8.82244 5.82141 8.8006L5.58581 8.63222L5.35027 8.8006C5.31975 8.8224 5.27911 8.79282 5.29036 8.7571L5.37774 8.48105L5.14481 8.30901C5.11467 8.2867 5.13019 8.23893 5.16769 8.2386L5.45724 8.2364L5.54883 7.96171C5.56069 7.92618 5.61099 7.92618 5.62285 7.96171Z" fill="#F5F5F5"/>
<path d="M5.62285 9.39875L5.71444 9.67344L6.00399 9.67564C6.04149 9.67597 6.057 9.72378 6.02686 9.74605L5.79394 9.91808L5.88131 10.1941C5.89266 10.2298 5.85192 10.2595 5.82141 10.2376L5.58581 10.0693L5.35027 10.2376C5.31975 10.2594 5.27911 10.2298 5.29036 10.1941L5.37774 9.91808L5.14481 9.74605C5.11467 9.72374 5.13019 9.67597 5.16769 9.67564L5.45724 9.67344L5.54883 9.39875C5.56069 9.36318 5.61099 9.36318 5.62285 9.39875Z" fill="#F5F5F5"/>
<path d="M5.62285 10.8353L5.71444 11.11L6.00399 11.1122C6.04149 11.1125 6.057 11.1603 6.02686 11.1826L5.79394 11.3546L5.88131 11.6307C5.89266 11.6664 5.85192 11.696 5.82141 11.6742L5.58581 11.5058L5.35027 11.6742C5.31975 11.696 5.27911 11.6664 5.29036 11.6307L5.37774 11.3546L5.14481 11.1826C5.11467 11.1603 5.13019 11.1125 5.16769 11.1122L5.45724 11.11L5.54883 10.8353C5.56069 10.7997 5.61099 10.7997 5.62285 10.8353Z" fill="#F5F5F5"/>
<path d="M6.73999 5.79227L6.83159 6.06696L7.12114 6.06916C7.15864 6.06949 7.17415 6.1173 7.14401 6.13957L6.91109 6.3116L6.99846 6.58765C7.00981 6.62337 6.96907 6.65299 6.93856 6.63115L6.70301 6.46277L6.46746 6.63115C6.43694 6.65294 6.3963 6.62337 6.40755 6.58765L6.49493 6.3116L6.262 6.13957C6.23186 6.11726 6.24738 6.06949 6.28488 6.06916L6.57443 6.06696L6.66602 5.79227C6.67788 5.75674 6.72813 5.75674 6.73999 5.79227Z" fill="#F5F5F5"/>
<path d="M6.73999 7.22932L6.83159 7.504L7.12114 7.5062C7.15864 7.50653 7.17415 7.55434 7.14401 7.57661L6.91109 7.74864L6.99846 8.02468C7.00981 8.0604 6.96907 8.09002 6.93856 8.06818L6.70301 7.89981L6.46746 8.06818C6.43694 8.08997 6.3963 8.06044 6.40755 8.02468L6.49493 7.74864L6.262 7.57661C6.23186 7.5543 6.24738 7.50653 6.28488 7.5062L6.57443 7.504L6.66602 7.22932C6.67788 7.19374 6.72813 7.19374 6.73999 7.22932Z" fill="#F5F5F5"/>
<path d="M6.73999 8.66633L6.83159 8.94102L7.12114 8.94322C7.15864 8.94355 7.17415 8.99136 7.14401 9.01363L6.91109 9.18566L6.99846 9.46171C7.00981 9.49742 6.96907 9.52705 6.93856 9.50521L6.70301 9.33683L6.46746 9.50521C6.43694 9.527 6.3963 9.49742 6.40755 9.46171L6.49493 9.18566L6.262 9.01363C6.23186 8.99132 6.24738 8.94355 6.28488 8.94322L6.57443 8.94102L6.66602 8.66633C6.67788 8.63075 6.72813 8.63075 6.73999 8.66633Z" fill="#F5F5F5"/>
<path d="M6.73999 10.1033L6.83159 10.378L7.12114 10.3802C7.15864 10.3805 7.17415 10.4283 7.14401 10.4506L6.91109 10.6226L6.99846 10.8987C7.00981 10.9344 6.96907 10.964 6.93856 10.9422L6.70301 10.7738L6.46746 10.9422C6.43694 10.964 6.3963 10.9344 6.40755 10.8987L6.49493 10.6226L6.262 10.4506C6.23186 10.4283 6.24738 10.3805 6.28488 10.3802L6.57443 10.378L6.66602 10.1033C6.67788 10.0678 6.72813 10.0678 6.73999 10.1033Z" fill="#F5F5F5"/>
<path d="M7.85334 5.08772L7.94493 5.3624L8.23448 5.36461C8.27198 5.36493 8.2875 5.41275 8.25736 5.43501L8.02444 5.60704L8.11181 5.88308C8.12315 5.9188 8.08242 5.94843 8.0519 5.92658L7.81635 5.75821L7.58081 5.92658C7.55029 5.94838 7.50965 5.9188 7.5209 5.88308L7.60827 5.60704L7.37535 5.43501C7.34521 5.4127 7.36072 5.36493 7.39823 5.36461L7.68778 5.3624L7.77937 5.08772C7.79114 5.05214 7.84148 5.05214 7.85334 5.08772Z" fill="#F5F5F5"/>
<path d="M7.85334 6.5247L7.94493 6.79938L8.23448 6.80159C8.27198 6.80191 8.2875 6.84973 8.25736 6.87199L8.02444 7.04402L8.11181 7.32007C8.12315 7.35579 8.08242 7.38541 8.0519 7.36357L7.81635 7.19519L7.58081 7.36357C7.55029 7.38536 7.50965 7.35579 7.5209 7.32007L7.60827 7.04402L7.37535 6.87199C7.34521 6.84968 7.36072 6.80191 7.39823 6.80159L7.68778 6.79938L7.77937 6.5247C7.79114 6.48916 7.84148 6.48916 7.85334 6.5247Z" fill="#F5F5F5"/>
<path d="M7.85334 7.96171L7.94493 8.2364L8.23448 8.2386C8.27198 8.23893 8.2875 8.28675 8.25736 8.30901L8.02444 8.48105L8.11181 8.7571C8.12315 8.79282 8.08242 8.82244 8.0519 8.8006L7.81635 8.63222L7.58081 8.8006C7.55029 8.8224 7.50965 8.79282 7.5209 8.7571L7.60827 8.48105L7.37535 8.30901C7.34521 8.2867 7.36072 8.23893 7.39823 8.2386L7.68778 8.2364L7.77937 7.96171C7.79114 7.92618 7.84148 7.92618 7.85334 7.96171Z" fill="#F5F5F5"/>
<path d="M7.85334 9.39875L7.94493 9.67344L8.23448 9.67564C8.27198 9.67597 8.2875 9.72378 8.25736 9.74605L8.02444 9.91808L8.11181 10.1941C8.12315 10.2298 8.08242 10.2595 8.0519 10.2376L7.81635 10.0693L7.58081 10.2376C7.55029 10.2594 7.50965 10.2298 7.5209 10.1941L7.60827 9.91808L7.37535 9.74605C7.34521 9.72374 7.36072 9.67597 7.39823 9.67564L7.68778 9.67344L7.77937 9.39875C7.79114 9.36318 7.84148 9.36318 7.85334 9.39875Z" fill="#F5F5F5"/>
<path d="M7.85334 10.8353L7.94493 11.11L8.23448 11.1122C8.27198 11.1125 8.2875 11.1603 8.25736 11.1826L8.02444 11.3546L8.11181 11.6307C8.12315 11.6664 8.08242 11.696 8.0519 11.6742L7.81635 11.5058L7.58081 11.6742C7.55029 11.696 7.50965 11.6664 7.5209 11.6307L7.60827 11.3546L7.37535 11.1826C7.34521 11.1603 7.36072 11.1125 7.39823 11.1122L7.68778 11.11L7.77937 10.8353C7.79114 10.7997 7.84148 10.7997 7.85334 10.8353Z" fill="#F5F5F5"/>
<path d="M8.97045 5.79227L9.06204 6.06696L9.35159 6.06916C9.38909 6.06949 9.4046 6.1173 9.37446 6.13957L9.14154 6.3116L9.22892 6.58765C9.24026 6.62337 9.19953 6.65299 9.16901 6.63115L8.93347 6.46277L8.69792 6.63115C8.66741 6.65294 8.62677 6.62337 8.63802 6.58765L8.72539 6.3116L8.49247 6.13957C8.46233 6.11726 8.47784 6.06949 8.51534 6.06916L8.80489 6.06696L8.89648 5.79227C8.9083 5.75674 8.95864 5.75674 8.97045 5.79227Z" fill="#F5F5F5"/>
<path d="M8.97045 7.22932L9.06204 7.504L9.35159 7.5062C9.38909 7.50653 9.4046 7.55434 9.37446 7.57661L9.14154 7.74864L9.22892 8.02468C9.24026 8.0604 9.19953 8.09002 9.16901 8.06818L8.93347 7.89981L8.69792 8.06818C8.66741 8.08997 8.62677 8.06044 8.63802 8.02468L8.72539 7.74864L8.49247 7.57661C8.46233 7.5543 8.47784 7.50653 8.51534 7.5062L8.80489 7.504L8.89648 7.22932C8.9083 7.19374 8.95864 7.19374 8.97045 7.22932Z" fill="#F5F5F5"/>
<path d="M8.97045 8.66633L9.06204 8.94102L9.35159 8.94322C9.38909 8.94355 9.4046 8.99136 9.37446 9.01363L9.14154 9.18566L9.22892 9.46171C9.24026 9.49742 9.19953 9.52705 9.16901 9.50521L8.93347 9.33683L8.69792 9.50521C8.66741 9.527 8.62677 9.49742 8.63802 9.46171L8.72539 9.18566L8.49247 9.01363C8.46233 8.99132 8.47784 8.94355 8.51534 8.94322L8.80489 8.94102L8.89648 8.66633C8.9083 8.63075 8.95864 8.63075 8.97045 8.66633Z" fill="#F5F5F5"/>
<path d="M8.97045 10.1033L9.06204 10.378L9.35159 10.3802C9.38909 10.3805 9.4046 10.4283 9.37446 10.4506L9.14154 10.6226L9.22892 10.8987C9.24026 10.9344 9.19953 10.964 9.16901 10.9422L8.93347 10.7738L8.69792 10.9422C8.66741 10.964 8.62677 10.9344 8.63802 10.8987L8.72539 10.6226L8.49247 10.4506C8.46233 10.4283 8.47784 10.3805 8.51534 10.3802L8.80489 10.378L8.89648 10.1033C8.9083 10.0678 8.95864 10.0678 8.97045 10.1033Z" fill="#F5F5F5"/>
<path d="M10.0837 5.08772L10.1753 5.3624L10.4649 5.36461C10.5024 5.36493 10.5179 5.41275 10.4878 5.43501L10.2548 5.60704L10.3422 5.88308C10.3535 5.9188 10.3128 5.94843 10.2823 5.92658L10.0468 5.75821L9.81121 5.92658C9.78069 5.94838 9.74005 5.9188 9.7513 5.88308L9.83867 5.60704L9.60575 5.43501C9.57561 5.4127 9.59113 5.36493 9.62863 5.36461L9.91817 5.3624L10.0098 5.08772C10.0216 5.05214 10.0718 5.05214 10.0837 5.08772Z" fill="#F5F5F5"/>
<path d="M10.0837 6.5247L10.1753 6.79938L10.4649 6.80159C10.5024 6.80191 10.5179 6.84973 10.4878 6.87199L10.2548 7.04402L10.3422 7.32007C10.3535 7.35579 10.3128 7.38541 10.2823 7.36357L10.0468 7.19519L9.81121 7.36357C9.78069 7.38536 9.74005 7.35579 9.7513 7.32007L9.83867 7.04402L9.60575 6.87199C9.57561 6.84968 9.59113 6.80191 9.62863 6.80159L9.91817 6.79938L10.0098 6.5247C10.0216 6.48916 10.0718 6.48916 10.0837 6.5247Z" fill="#F5F5F5"/>
<path d="M10.0837 7.96171L10.1753 8.2364L10.4649 8.2386C10.5024 8.23893 10.5179 8.28675 10.4878 8.30901L10.2548 8.48105L10.3422 8.7571C10.3535 8.79282 10.3128 8.82244 10.2823 8.8006L10.0468 8.63222L9.81121 8.8006C9.78069 8.8224 9.74005 8.79282 9.7513 8.7571L9.83867 8.48105L9.60575 8.30901C9.57561 8.2867 9.59113 8.23893 9.62863 8.2386L9.91817 8.2364L10.0098 7.96171C10.0216 7.92618 10.0718 7.92618 10.0837 7.96171Z" fill="#F5F5F5"/>
<path d="M10.0837 9.39875L10.1753 9.67344L10.4649 9.67564C10.5024 9.67597 10.5179 9.72378 10.4878 9.74605L10.2548 9.91808L10.3422 10.1941C10.3535 10.2298 10.3128 10.2595 10.2823 10.2376L10.0468 10.0693L9.81121 10.2376C9.78069 10.2594 9.74005 10.2298 9.7513 10.1941L9.83867 9.91808L9.60575 9.74605C9.57561 9.72374 9.59113 9.67597 9.62863 9.67564L9.91817 9.67344L10.0098 9.39875C10.0216 9.36318 10.0718 9.36318 10.0837 9.39875Z" fill="#F5F5F5"/>
<path d="M10.0837 10.8353L10.1753 11.11L10.4649 11.1122C10.5024 11.1125 10.5179 11.1603 10.4878 11.1826L10.2548 11.3546L10.3422 11.6307C10.3535 11.6664 10.3128 11.696 10.2823 11.6742L10.0468 11.5058L9.81121 11.6742C9.78069 11.696 9.74005 11.6664 9.7513 11.6307L9.83867 11.3546L9.60575 11.1826C9.57561 11.1603 9.59113 11.1125 9.62863 11.1122L9.91817 11.11L10.0098 10.8353C10.0216 10.7997 10.0718 10.7997 10.0837 10.8353Z" fill="#F5F5F5"/>
</svg>
