<svg width="35" height="35" viewBox="0 0 35 35" fill="none" xmlns="http://www.w3.org/2000/svg">
<path d="M24.7941 16.0826C19.7172 16.0826 15.5859 20.2136 15.5859 25.2903C15.5859 30.3669 19.7151 34.5 24.7941 34.5C29.8732 34.5 34.0023 30.369 34.0023 25.2924C34.0023 20.2158 29.8711 16.0826 24.7941 16.0826ZM30.8911 21.75H28.3346V19.1936C29.3972 19.812 30.2727 20.6896 30.8911 21.75ZM31.7348 26.7076H28.3367V23.875H31.7348C31.9197 24.7845 31.9303 25.745 31.7348 26.7076ZM17.8535 23.875H21.2515V26.7076H17.8535C17.6686 25.8003 17.6558 24.8398 17.8535 23.875ZM23.3767 23.875H26.2095V26.7076H23.3767V23.875ZM26.2095 18.3521V21.75H23.3767V18.3521C24.2862 18.1673 25.2468 18.1545 26.2095 18.3521ZM21.2515 19.1936V21.75H18.695C19.3134 20.6896 20.1911 19.812 21.2515 19.1936ZM18.695 28.8326H21.2515V31.389C20.1911 30.7706 19.3134 29.8951 18.695 28.8326ZM23.3767 32.2326V28.8348H26.2095V32.2326C25.302 32.4175 24.3415 32.4281 23.3767 32.2326ZM28.3346 31.389V28.8326H30.8911C30.2727 29.8951 29.3972 30.7706 28.3346 31.389Z" fill="white" fill-opacity="0.8"/>
<path d="M26.9191 0.5H4.25027C1.90199 0.5 0 2.40188 0 4.75C0 7.09812 1.90199 9 4.25027 9H26.9191C29.2673 9 31.1693 7.09812 31.1693 4.75C31.1693 2.40188 29.2652 0.5 26.9191 0.5ZM4.25027 6.16737C3.46822 6.16737 2.8328 5.532 2.8328 4.75C2.8328 3.968 3.46822 3.33263 4.25027 3.33263C5.03232 3.33263 5.66773 3.96587 5.66773 4.75C5.66773 5.532 5.03232 6.16737 4.25027 6.16737ZM9.918 6.16737C9.13382 6.16737 8.50053 5.532 8.50053 4.75C8.50053 3.968 9.13382 3.33263 9.918 3.33263C10.7 3.33263 11.3355 3.96587 11.3355 4.75C11.3333 5.532 10.7 6.16737 9.918 6.16737Z" fill="white"/>
<path d="M26.9191 11.8326H4.25027C1.89774 11.8326 0 13.7303 0 16.0826C0 18.435 1.89774 20.3326 4.25027 20.3326H13.8282C15.7111 16.1549 19.9189 13.25 24.7939 13.25C27.0614 13.25 29.1993 13.8875 31.0142 14.9925C30.5445 13.165 28.8869 11.8326 26.9191 11.8326ZM4.25027 17.5C3.47034 17.5 2.8328 16.8625 2.8328 16.0826C2.8328 15.3028 3.47034 14.6653 4.25027 14.6653C5.03019 14.6653 5.66773 15.3028 5.66773 16.0826C5.66773 16.8625 5.03019 17.5 4.25027 17.5ZM9.918 17.5C9.13807 17.5 8.50053 16.8625 8.50053 16.0826C8.50053 15.3028 9.13807 14.6653 9.918 14.6653C10.6979 14.6653 11.3355 15.3028 11.3355 16.0826C11.3355 16.8625 10.6958 17.5 9.918 17.5Z" fill="white"/>
<path d="M12.7508 25.2924C12.7508 24.5699 12.8209 23.8622 12.9484 23.1674H4.25027C1.89774 23.1674 0 25.065 0 27.4174C0 29.7697 1.89774 31.6674 4.25027 31.6674H14.5784C13.416 29.825 12.7508 27.6299 12.7508 25.2924ZM4.25027 28.8326C3.47034 28.8326 2.8328 28.1951 2.8328 27.4152C2.8328 26.6375 3.47034 26 4.25027 26C5.03019 26 5.66773 26.6375 5.66773 27.4174C5.66773 28.1951 5.03019 28.8326 4.25027 28.8326ZM9.918 28.8326C9.13807 28.8326 8.50053 28.1951 8.50053 27.4152C8.50053 26.6375 9.13807 26 9.918 26C10.6979 26 11.3355 26.6375 11.3355 27.4174C11.3333 28.1951 10.6958 28.8326 9.918 28.8326Z" fill="white"/>
</svg>
