<svg width="35" height="35" viewBox="0 0 35 35" fill="none" xmlns="http://www.w3.org/2000/svg">
<path d="M29.1864 27.7701C29.1099 27.7701 29.0334 27.7616 28.9547 27.7446C28.3809 27.6171 28.0197 27.0497 28.1472 26.4781L30.0322 17.9632C30.1576 17.3916 30.725 17.0325 31.2988 17.1557C31.8725 17.2832 32.2338 17.8506 32.1063 18.4222L30.2213 26.9371C30.1129 27.4343 29.673 27.7701 29.1864 27.7701Z" fill="white" fill-opacity="0.8"/>
<path d="M7.79034 31.4251C7.22931 31.4251 6.75753 30.9831 6.7299 30.4157C6.70015 29.8292 7.1528 29.332 7.73934 29.3022L26.1579 28.3948C26.7423 28.3651 27.2417 28.8177 27.2714 29.4042C27.3012 29.9907 26.8485 30.488 26.262 30.5177L7.84347 31.4251C7.82647 31.4251 7.80735 31.4251 7.79034 31.4251Z" fill="white" fill-opacity="0.8"/>
<path d="M2.73268 16.5799C2.57967 16.5799 2.42666 16.548 2.28003 16.4779C1.74874 16.2271 1.52135 15.5939 1.77425 15.0626L6.63442 4.7925C6.88519 4.26125 7.51848 4.03599 8.04764 4.28674C8.57892 4.53749 8.80631 5.17074 8.55342 5.70199L3.69324 15.9721C3.5126 16.3546 3.13008 16.5799 2.73268 16.5799Z" fill="white" fill-opacity="0.8"/>
<path d="M3.03013 27.9975C2.46697 27.9975 1.99732 27.5555 1.96969 26.986L1.54466 18.1609C1.51704 17.5744 1.96756 17.0771 2.5541 17.0495C3.14489 17.0261 3.63792 17.4724 3.66555 18.0589L4.09057 26.884C4.12032 27.4705 3.66767 27.9677 3.08113 27.9954C3.06413 27.9975 3.04713 27.9975 3.03013 27.9975Z" fill="white" fill-opacity="0.8"/>
<path d="M30.0238 15.375C29.6752 15.375 29.3331 15.205 29.1291 14.8905L23.2488 5.81036C22.9301 5.31736 23.0725 4.66074 23.5634 4.34199C24.0564 4.02324 24.7131 4.16349 25.0318 4.65649L30.9121 13.7366C31.2308 14.2296 31.0885 14.8862 30.5976 15.205C30.419 15.3197 30.2214 15.375 30.0238 15.375Z" fill="white" fill-opacity="0.8"/>
<path d="M21.9608 5.03261C21.9438 5.03261 21.9268 5.03261 21.9098 5.03049L10.5616 4.49074C9.97505 4.46311 9.5224 3.96586 9.55003 3.37936C9.57766 2.79286 10.1217 2.36361 10.6615 2.36786L22.0097 2.90761C22.5962 2.93524 23.0489 3.43249 23.0212 4.01899C22.9936 4.59061 22.524 5.03261 21.9608 5.03261Z" fill="white" fill-opacity="0.8"/>
<path d="M27.0461 28.6074C26.7741 28.6074 26.502 28.5032 26.2938 28.2971L20.9661 22.9697C20.5517 22.5554 20.5517 21.8817 20.9661 21.4674C21.3805 21.053 22.0541 21.053 22.4685 21.4674L27.7963 26.7947C28.2107 27.2091 28.2107 27.8827 27.7963 28.2971C27.588 28.5032 27.3181 28.6074 27.0461 28.6074Z" fill="white" fill-opacity="0.8"/>
<path d="M14.7352 14.4549C14.3803 14.4549 14.0317 14.2764 13.8299 13.9512L8.71466 5.69136C8.40652 5.19199 8.55953 4.53749 9.05893 4.22936C9.55621 3.92124 10.2129 4.07424 10.521 4.57361L15.6362 12.8335C15.9444 13.3329 15.7914 13.9874 15.2919 14.2955C15.1198 14.4039 14.9264 14.4549 14.7352 14.4549Z" fill="white" fill-opacity="0.8"/>
<path d="M6.58974 28.6626C6.25397 28.6626 5.92245 28.5032 5.71631 28.2079C5.38054 27.7255 5.49955 27.0646 5.97983 26.7289L13.3604 21.5864C13.8449 21.2485 14.5059 21.3696 14.8395 21.8499C15.1753 22.3322 15.0563 22.9931 14.576 23.3289L7.19541 28.4714C7.01052 28.601 6.79801 28.6626 6.58974 28.6626Z" fill="white" fill-opacity="0.8"/>
<path d="M19.8057 14.015C19.674 14.015 19.5401 13.9916 19.4105 13.9385C18.8643 13.7196 18.6008 13.1012 18.8197 12.5572L21.865 4.96462C22.0818 4.4185 22.7023 4.15287 23.2463 4.37387C23.7925 4.59275 24.056 5.21112 23.8371 5.75512L20.7918 13.3477C20.626 13.7642 20.2265 14.015 19.8057 14.015Z" fill="white" fill-opacity="0.8"/>
<path d="M23.3041 18.3925C22.7898 18.3925 22.3393 18.0206 22.2564 17.4979C22.1629 16.9199 22.5581 16.3738 23.1383 16.2803L28.9038 15.3601C29.4839 15.2709 30.028 15.6619 30.1194 16.242C30.2129 16.82 29.8176 17.3661 29.2374 17.4596L23.4719 18.3797C23.4167 18.3882 23.3593 18.3925 23.3041 18.3925Z" fill="white" fill-opacity="0.8"/>
<path d="M12.0706 18.7601C12.0387 18.7601 12.0047 18.758 11.9729 18.7558L3.42983 17.976C2.84754 17.925 2.41614 17.4065 2.46927 16.8221C2.5224 16.2356 3.04518 15.8063 3.62534 15.8616L12.1684 16.6415C12.7528 16.6946 13.1821 17.2131 13.1289 17.7975C13.0779 18.3457 12.6147 18.7601 12.0706 18.7601Z" fill="white" fill-opacity="0.8"/>
<path d="M17.7089 24.5826C14.1939 24.5826 11.3335 21.7224 11.3335 18.2076C11.3335 14.6929 14.1939 11.8326 17.7089 11.8326C21.2239 11.8326 24.0843 14.6929 24.0843 18.2076C24.0843 21.7245 21.226 24.5826 17.7089 24.5826Z" fill="white"/>
<path d="M4.25027 34.5C1.90624 34.5 0 32.5939 0 30.25C0 27.9061 1.90624 26 4.25027 26C6.59429 26 8.50053 27.9061 8.50053 30.25C8.50053 32.5939 6.59429 34.5 4.25027 34.5Z" fill="white"/>
<path d="M8.50028 6.16737C6.93831 6.16737 5.66748 4.89662 5.66748 3.33475C5.66748 1.77075 6.93831 0.5 8.50028 0.5C10.0623 0.5 11.3331 1.77075 11.3331 3.33263C11.3331 4.89663 10.0623 6.16737 8.50028 6.16737Z" fill="white"/>
<path d="M29.0441 33.0826C27.0911 33.0826 25.5015 31.4931 25.5015 29.5403C25.5015 27.5895 27.0889 26 29.0441 26C30.9992 26 32.5867 27.5895 32.5867 29.5424C32.5845 31.4953 30.9971 33.0826 29.0441 33.0826Z" fill="white"/>
<path d="M23.3766 6.16739C24.5503 6.16739 25.5017 5.21599 25.5017 4.04239C25.5017 2.86878 24.5503 1.91739 23.3766 1.91739C22.2029 1.91739 21.2515 2.86878 21.2515 4.04239C21.2515 5.21599 22.2029 6.16739 23.3766 6.16739Z" fill="white"/>
<path d="M31.1692 18.9174C29.6073 18.9174 28.3364 17.6466 28.3364 16.0847C28.3364 14.5229 29.6073 13.25 31.1692 13.25C32.7312 13.25 34.002 14.5208 34.002 16.0826C34.002 17.6445 32.7312 18.9174 31.1692 18.9174Z" fill="white"/>
<path d="M2.12513 18.9174C3.29881 18.9174 4.25027 17.966 4.25027 16.7924C4.25027 15.6188 3.29881 14.6674 2.12513 14.6674C0.951455 14.6674 0 15.6188 0 16.7924C0 17.966 0.951455 18.9174 2.12513 18.9174Z" fill="white"/>
</svg>
