<svg width="35" height="35" viewBox="0 0 35 35" fill="none" xmlns="http://www.w3.org/2000/svg">
<path d="M29.3544 0.812395L26.6427 3.52372C23.8524 1.58372 20.5202 0.502165 17.001 0.502165C7.62709 0.502165 0 8.12831 0 17.5011C0 19.1606 0.244389 20.8138 0.724668 22.4117C0.862801 22.8706 1.2857 23.1681 1.7426 23.1681C1.84461 23.1681 1.94662 23.1532 2.05075 23.1235C2.61178 22.9535 2.93055 22.3607 2.76267 21.7997C2.33977 20.3994 2.12513 18.9524 2.12513 17.5011C2.12513 9.29911 8.79803 2.62703 17.001 2.62703C19.9465 2.62703 22.7474 3.4876 25.1211 5.04513L22.979 7.18699C22.3117 7.8542 22.7878 9.00163 23.7313 9.00163H30.1067C30.6932 9.00163 31.1693 8.52566 31.1693 7.93919V1.5646C31.1693 0.616908 30.0196 0.145188 29.3544 0.812395Z" fill="white" fill-opacity="0.8"/>
<path d="M33.2776 12.5905C33.1097 12.0295 32.5147 11.7129 31.9537 11.8787C31.3926 12.0486 31.0739 12.6415 31.2418 13.2025C31.6625 14.6027 31.8772 16.0476 31.8772 17.5011C31.8772 25.703 25.2043 32.3751 17.0013 32.3751C14.0601 32.3751 11.2677 31.5188 8.8939 29.9655L11.0254 27.8088C11.6906 27.1394 11.2145 26.0005 10.271 26.0005H3.8956C3.61296 26.0005 3.33882 26.1131 3.14118 26.315C2.94142 26.5169 2.83091 26.791 2.83304 27.0736L2.90529 33.4482C2.91592 34.3916 4.06561 34.8506 4.72228 34.1834L7.38294 31.4933C10.169 33.4227 13.4927 34.5 17.0013 34.5C26.3752 34.5 34.0023 26.8738 34.0023 17.5011C34.0023 15.8415 33.7579 14.1884 33.2776 12.5905Z" fill="white" fill-opacity="0.8"/>
<path d="M17.001 16.0838C13.7326 16.0838 9.91797 15.3422 9.91797 13.2513C9.91797 11.1605 13.7347 10.4189 17.001 10.4189C20.2673 10.4189 24.0841 11.1605 24.0841 13.2513C24.0841 15.3422 20.2695 16.0838 17.001 16.0838Z" fill="white"/>
<path d="M17.001 18.2086C13.9132 18.2086 11.5012 17.6732 9.91797 16.7021V17.4989C9.91797 19.5898 13.7347 20.3314 17.001 20.3314C20.2673 20.3314 24.0841 19.5898 24.0841 17.4989V16.7021C22.5009 17.6732 20.0888 18.2086 17.001 18.2086Z" fill="white"/>
<path d="M17.001 22.4584C13.9132 22.4584 11.5012 21.9229 9.91797 20.9518V21.7487C9.91797 23.8395 13.7347 24.5811 17.001 24.5811C20.2673 24.5811 24.0841 23.8395 24.0841 21.7487V20.9518C22.5009 21.9229 20.0888 22.4584 17.001 22.4584Z" fill="white"/>
</svg>
