<svg width="35" height="34" viewBox="0 0 35 34" fill="none" xmlns="http://www.w3.org/2000/svg">
<path d="M30.0621 8.75737L17.5176 0.82955C17.2021 0.63014 16.8 0.63014 16.4846 0.82955L3.9401 8.75737C3.57625 8.98725 3.40832 9.43 3.52793 9.84335C3.64759 10.2568 4.02616 10.5412 4.45657 10.5412H29.5455C29.9759 10.5412 30.3544 10.2568 30.4742 9.84335C30.5939 9.43 30.4258 8.98725 30.0621 8.75737Z" fill="#DBDBDB"/>
<path d="M27.8956 11.1191H24.5312C23.9973 11.1191 23.5645 11.5519 23.5645 12.0858V26.2443C23.5645 26.7782 23.9973 27.211 24.5312 27.211H27.8956C28.4296 27.211 28.8624 26.7782 28.8624 26.2443V12.0858C28.8624 11.5519 28.4296 11.1191 27.8956 11.1191Z" fill="#DBDBDB" fill-opacity="0.8"/>
<path d="M18.6832 11.1193H15.3188C14.7849 11.1193 14.3521 11.5521 14.3521 12.086V26.2445C14.3521 26.7784 14.7849 27.2112 15.3188 27.2112H18.6832C19.2172 27.2112 19.65 26.7784 19.65 26.2445V12.086C19.6501 11.5521 19.2172 11.1193 18.6832 11.1193Z" fill="#DBDBDB" fill-opacity="0.8"/>
<path d="M9.40443 11.1193H6.04001C5.50607 11.1193 5.07324 11.5521 5.07324 12.086V26.2445C5.07324 26.7784 5.50607 27.2112 6.04001 27.2112H9.40443C9.93837 27.2112 10.3712 26.7784 10.3712 26.2445V12.086C10.3712 11.5521 9.9383 11.1193 9.40443 11.1193Z" fill="#DBDBDB" fill-opacity="0.8"/>
<path d="M31.3383 8.60822H2.66399C1.6714 8.60822 0.86377 9.41574 0.86377 10.4083V12.2589C0.86377 13.2514 1.67134 14.059 2.66399 14.059H31.3384C32.331 14.059 33.1387 13.2515 33.1387 12.2589V10.4083C33.1386 9.41567 32.331 8.60822 31.3383 8.60822Z" fill="white"/>
<path d="M29.5455 24.3517H4.45651C3.92257 24.3517 3.48975 24.7845 3.48975 25.3185V28.8359C3.48975 29.3698 3.92257 29.8026 4.45651 29.8026H29.5455C30.0794 29.8026 30.5122 29.3698 30.5122 28.8359V25.3185C30.5123 24.7845 30.0795 24.3517 29.5455 24.3517Z" fill="#DCDCDC"/>
<path d="M32.1719 27.8687H1.83053C1.2966 27.8687 0.86377 28.3015 0.86377 28.8354V32.3528C0.86377 32.8867 1.2966 33.3195 1.83053 33.3195H32.1719C32.7058 33.3195 33.1386 32.8867 33.1386 32.3528V28.8354C33.1387 28.3015 32.7058 27.8687 32.1719 27.8687Z" fill="white"/>
</svg>
