<svg width="35" height="35" viewBox="0 0 35 35" fill="none" xmlns="http://www.w3.org/2000/svg">
<path d="M16.8243 16.0826C13.5558 16.0826 9.74121 15.341 9.74121 13.25C9.74121 11.159 13.5579 10.4174 16.8243 10.4174C20.0927 10.4174 23.9073 11.159 23.9073 13.25C23.9073 15.341 20.0927 16.0826 16.8243 16.0826Z" fill="white"/>
<path d="M19.3133 34.5H14.6912C13.4055 34.5 12.2685 33.5905 11.9901 32.3346L11.4461 29.9313C10.5876 29.553 9.763 29.0749 8.98308 28.5054L6.63056 29.2449C5.37248 29.6316 4.01027 29.1004 3.37911 27.9784L1.07759 24.0089C0.4358 22.8699 0.650438 21.4674 1.59187 20.5855L3.41948 18.9131C3.37061 18.4371 3.34723 17.9632 3.34723 17.5C3.34723 17.0368 3.37061 16.5629 3.41948 16.0869L1.60462 14.4251C0.650439 13.5305 0.435801 12.1301 1.06909 11.006L3.38973 7.00675C4.0124 5.90175 5.37673 5.36837 6.62631 5.75512L8.9852 6.49675C9.76513 5.92725 10.5876 5.44913 11.4482 5.07088L11.9923 2.66325C12.2685 1.4095 13.4055 0.5 14.6912 0.5H19.3133C20.599 0.5 21.736 1.4095 22.0144 2.66538L22.5584 5.06875C23.417 5.447 24.2415 5.92513 25.0214 6.49463L27.374 5.75512C28.632 5.36625 29.9942 5.90175 30.6254 7.02163L32.9269 10.9911C33.5687 12.1301 33.3541 13.5326 32.4126 14.4145L30.585 16.0869C30.6318 16.565 30.6573 17.0368 30.6573 17.5C30.6573 17.9632 30.6339 18.4371 30.585 18.9131L32.3999 20.5749L32.4126 20.5876C33.352 21.4695 33.5687 22.872 32.9354 23.9961L30.6148 27.9954C29.9921 29.1004 28.6299 29.6337 27.3782 29.247L25.0193 28.5054C24.2394 29.0749 23.417 29.553 22.5563 29.9313L22.0123 32.3389C21.7339 33.5905 20.5969 34.5 19.3133 34.5ZM9.2636 25.5155C9.58661 25.5155 9.90538 25.626 10.1625 25.8364C11.0848 26.5929 12.09 27.1772 13.1526 27.5661C13.6031 27.7319 13.9389 28.1144 14.0451 28.584L14.7528 31.7141L19.3133 31.6674L19.9573 28.584C20.0635 28.1165 20.3993 27.7319 20.8498 27.5661C21.9124 27.1751 22.9176 26.5929 23.8399 25.8364C24.2096 25.5325 24.709 25.439 25.1638 25.5793L28.2219 26.5419L30.449 22.6319L28.1326 20.509C27.7841 20.1903 27.6184 19.7206 27.6885 19.2553C27.7777 18.6602 27.8224 18.0695 27.8224 17.5C27.8224 16.9305 27.7777 16.3397 27.6885 15.7447C27.6184 15.2794 27.7841 14.8097 28.1326 14.491L30.4852 12.3362L28.1624 8.42625L25.1638 9.41862C24.7069 9.561 24.2075 9.46538 23.8399 9.1615C22.9176 8.405 21.9124 7.82063 20.8498 7.43175C20.3993 7.266 20.0635 6.8835 19.9573 6.41388L19.2496 3.28375L14.6891 3.3305L14.0451 6.41388C13.9389 6.88137 13.6031 7.266 13.1526 7.43175C12.09 7.82275 11.0848 8.405 10.1625 9.1615C9.79275 9.46538 9.29547 9.561 8.83857 9.41862L5.78051 8.456L3.52999 12.4085L5.87188 14.4867C6.22041 14.8055 6.38617 15.2751 6.31604 15.7405C6.22678 16.3355 6.18216 16.9263 6.18216 17.4958C6.18216 18.0653 6.22678 18.656 6.31604 19.251C6.38617 19.7164 6.22041 20.186 5.87188 20.5047L3.51724 22.6637L5.84001 26.5738L8.83857 25.5814C8.97883 25.5367 9.12121 25.5155 9.2636 25.5155Z" fill="white" fill-opacity="0.8"/>
<path d="M16.8243 18.2077C13.7365 18.2077 11.3244 17.6722 9.74121 16.701V17.4979C9.74121 19.5889 13.5579 20.3306 16.8243 20.3306C20.0927 20.3306 23.9073 19.5889 23.9073 17.4979V16.701C22.3241 17.6722 19.9121 18.2077 16.8243 18.2077Z" fill="white"/>
<path d="M16.8243 22.4577C13.7365 22.4577 11.3244 21.9222 9.74121 20.951V21.7479C9.74121 23.8389 13.5579 24.5806 16.8243 24.5806C20.0927 24.5806 23.9073 23.8389 23.9073 21.7479V20.951C22.3241 21.9222 19.9121 22.4577 16.8243 22.4577Z" fill="white"/>
</svg>
